<svg width="75" height="75" viewBox="0 0 75 75" fill="none" xmlns="http://www.w3.org/2000/svg">
<path d="M23.5289 44.407C23.2265 45.8086 22.9828 47.5031 22.8515 49.2305L22.8445 49.3617C22.8445 49.4203 22.8328 49.4789 22.8304 49.5375C22.0031 48.4969 21.007 47.6344 19.875 46.9758L19.8257 46.95C21.3117 48.8297 22.3546 51.1242 22.7578 53.632L22.7695 53.7164C22.596 53.7328 22.3968 53.7422 22.1929 53.7422C21.1921 53.7422 20.2429 53.5219 19.3898 53.1281L19.432 53.1445C20.1984 53.9297 21.1546 54.5226 22.2257 54.8531L22.2726 54.8648C20.7398 55.1719 19.4039 55.8633 18.3234 56.8336L18.3304 56.8266C19.432 56.2617 20.7328 55.9289 22.1109 55.9289C22.425 55.9289 22.7367 55.9453 23.0414 55.9805L23.0039 55.9781C21.2179 61.0734 19.4015 66.682 17.6062 72.6422C18.1148 72.4922 18.5085 72.1078 18.6679 71.6156L18.6703 71.6039C18.9914 70.5258 21.1312 63.443 24.464 54.1336L24.8296 53.1141C25.1812 52.1414 25.5492 51.1453 25.9242 50.1258L26.1867 49.432V49.4203L23.557 44.2336C23.5476 44.2922 23.5289 44.3508 23.5218 44.4094L23.5289 44.407ZM27.5601 45.7992C28.0218 44.6109 28.4953 43.4273 28.9757 42.2109C29.4328 41.0578 29.9132 39.8977 30.3937 38.7258C31.8796 35.1742 33.4414 31.6555 35.0789 28.1695L35.6789 26.9273C36.0304 26.2148 36.3726 25.507 36.7335 24.8062C36.7476 24.7617 36.7664 24.7219 36.7921 24.6891L34.1718 19.5258L34.0429 19.7297C33.4359 20.7258 32.8312 21.7406 32.2359 22.7812C31.1093 24.7406 30.0429 26.732 29.0367 28.7555L28.7625 29.3203C27.5179 31.7812 26.271 34.7719 25.2281 37.8539L25.0781 38.3602C24.5578 39.893 24.0304 41.8547 23.6156 43.8586L23.5546 44.2102L26.1796 49.3945C26.5218 48.4664 26.8828 47.5266 27.246 46.575L27.5601 45.7992ZM38.4843 21.4312C39.6875 19.1844 40.9625 16.9781 42.3093 14.8125L42.4265 14.625C43.0828 13.5937 43.7437 12.5953 44.4093 11.6367L42.4031 7.84922L41.9437 8.41172C41.3671 9.12891 40.7625 9.90469 40.1484 10.725C38.05 13.5344 36.082 16.4336 34.2445 19.4227L34.1789 19.5328L36.7945 24.6961C37.35 23.5898 37.9078 22.493 38.4796 21.4219L38.4843 21.4312ZM47.5171 2.68125C45.5625 4.17188 43.875 5.87344 42.4453 7.77891L42.3984 7.84453L44.407 11.6344C45.7992 9.62578 47.2054 7.87266 48.7218 6.22031L48.689 6.25781L48.8578 6.07734C48.7992 6.13359 48.7453 6.19219 48.6937 6.25547L48.6914 6.26016C47.2898 7.87734 45.9609 9.65859 44.7726 11.5359L44.6648 11.7164C47.632 11.5008 50.3085 11.1586 52.9382 10.6805L52.4718 10.7508C52.6664 10.0828 52.7789 9.31641 52.7789 8.52422C52.7789 7.03594 52.3851 5.64141 51.696 4.43672L51.7171 4.47656C51.7171 4.47656 49.7835 1.34297 47.5125 2.69063L47.5171 2.68125ZM26.5757 50.5336C26.2335 51.4789 25.8867 52.4477 25.5351 53.4398L25.521 53.4844C25.4742 53.618 25.4273 53.7586 25.3757 53.8992C25.1414 54.5648 24.9375 55.1648 24.4687 56.5359C25.3359 57.1008 26.0156 57.8906 26.4328 58.8258L26.4468 58.8586C26.3882 57.7078 25.875 56.6859 25.0851 55.9617L25.0828 55.9594C25.5187 56.0344 26.0203 56.0766 26.5312 56.0766C29.5148 56.0766 32.1632 54.6398 33.8226 52.4203L33.839 52.3969C33.9656 52.1859 34.1039 51.9305 34.2257 51.6656L34.2468 51.6117C33.5742 52.4391 32.5546 52.9641 31.4132 52.9641C31.1718 52.9641 30.9375 52.9406 30.7101 52.8961L30.7335 52.9008C32.9015 52.0851 34.6664 50.6203 35.8429 48.7453L35.8687 48.7031C36.1429 48.2555 36.4125 47.7656 36.689 47.2289C35.1703 48.8953 32.9929 49.9359 30.5718 49.9359C29.9742 49.9359 29.3929 49.8727 28.8328 49.7531L28.8867 49.7625L26.7773 49.9898C26.7085 50.168 26.6429 50.3469 26.5804 50.5266L26.5757 50.5336ZM37.1906 25.1414L36.9656 25.6102C36.7382 26.0789 36.5062 26.5477 36.2742 27.0398C36.0234 27.5672 35.7703 28.1062 35.5125 28.657L35.1257 29.4984C33.6554 32.6859 32.2625 35.9078 30.9468 39.1641C30.4687 40.3266 29.9875 41.5273 29.5031 42.7664C29.0648 43.8797 28.6335 45.007 28.1859 46.1766L28.1273 46.3523C27.689 47.5125 27.2484 48.7008 26.8007 49.9266L26.7726 50.0062L28.882 49.7719C28.8375 49.7695 28.7953 49.7625 28.7554 49.7531H28.7601C31.9687 49.0898 34.7273 47.4797 36.8062 45.232L36.8156 45.2227C37.8421 44.1023 38.7539 42.8484 39.5156 41.4984L39.5671 41.3977C40.1437 40.3945 40.7367 39.1828 41.2546 37.9336L41.3367 37.7133C41.8289 36.5273 42.2976 35.2453 42.7429 33.8531C42.1734 34.1508 41.5148 34.3898 40.821 34.5328L40.7718 34.5422C40.5492 34.5984 40.2773 34.6453 40.0007 34.6734L39.9726 34.6758C42.1875 33.7523 43.9242 32.0555 44.8781 29.9297L44.9015 29.8711C44.0929 30.4383 43.1437 30.8695 42.1218 31.1133L42.0656 31.125C41.8898 31.1602 41.7257 31.1883 41.557 31.2117L41.4304 31.2305H41.4375C42.2414 30.9 42.9328 30.5039 43.5656 30.0328L43.5398 30.0516C44.2828 29.4891 44.9015 28.8094 45.3867 28.0383L45.4054 28.0078L45.5906 27.7031L45.8156 27.2531C46.1578 26.5922 46.521 25.7719 46.8375 24.9281L46.8914 24.7641L46.9804 24.5062C47.1187 24.1289 47.2429 23.6742 47.332 23.2055L47.3414 23.1492C47.2617 23.2148 47.1703 23.2781 47.0765 23.3344L47.0671 23.3391C46.2234 23.7914 45.246 24.1359 44.2125 24.3258L44.1515 24.3352L44.1492 24.3328H44.1L43.807 24.382L43.8562 24.3586L37.2234 25.0898L37.1859 25.1531L37.1906 25.1414ZM44.6695 11.7164C44.0718 12.6234 43.4273 13.65 42.7359 14.8219L42.6187 15.0023C41.3187 17.2008 40.0835 19.4367 38.9132 21.7102C38.3648 22.7648 37.8015 23.8836 37.2234 25.0664L43.8632 24.3352C45.3609 23.7375 46.596 22.7508 47.4843 21.5016L47.5007 21.4758C47.7304 21.1445 47.9546 20.8109 48.1734 20.475C48.846 19.4109 49.521 18.2414 50.1164 17.0766C50.6929 15.9469 51.1992 14.8312 51.5953 13.8258C51.839 13.1813 52.0335 12.5906 52.1742 12.068C52.296 11.6063 52.3898 11.168 52.4671 10.7508C50.3015 11.1586 47.625 11.5008 44.9062 11.7023L44.6531 11.7164H44.6695ZM57.1382 8.78906L56.625 9.82266L56.121 8.78906H55.8656V10.2703H56.0625V9.08906L56.5664 10.1133H56.6976L57.2015 9.08906V10.2727H57.3937V8.79141L57.1382 8.78906ZM54.5015 8.78906V8.98125H54.9585V10.2703H55.1695V8.98125H55.6265V8.78906H54.5015Z" fill="url(#paint0_linear_185_1563)"/>
<defs>
<linearGradient id="paint0_linear_185_1563" x1="37.5" y1="2.35397" x2="37.5" y2="72.6422" gradientUnits="userSpaceOnUse">
<stop stop-color="#84CFBB"/>
<stop offset="1" stop-color="#151515" stop-opacity="0.5"/>
</linearGradient>
</defs>
</svg>
