<svg width="50" height="50" viewBox="0 0 50 50" fill="none" xmlns="http://www.w3.org/2000/svg">
<path d="M39.8821 11.1111V11.0695H10.1044V11.1111C9.6498 11.1556 9.22476 11.3564 8.90181 11.6794C8.57885 12.0024 8.37799 12.4274 8.33352 12.882V32.4514C8.33164 32.7956 8.42281 33.1339 8.59741 33.4306C8.75525 33.7409 8.99879 33.9993 9.29914 34.1754C9.59948 34.3514 9.94401 34.4375 10.2919 34.4236H21.0141V37.132H18.9724C18.7475 37.1517 18.5382 37.255 18.3858 37.4215C18.2333 37.588 18.1487 37.8055 18.1487 38.0313C18.1487 38.257 18.2333 38.4745 18.3858 38.641C18.5382 38.8075 18.7475 38.9108 18.9724 38.9306H31.0141C31.1388 38.9415 31.2645 38.9264 31.3831 38.8862C31.5017 38.846 31.6106 38.7816 31.7029 38.697C31.7953 38.6124 31.869 38.5096 31.9195 38.395C31.9699 38.2803 31.996 38.1565 31.996 38.0313C31.996 37.906 31.9699 37.7822 31.9195 37.6676C31.869 37.553 31.7953 37.4501 31.7029 37.3655C31.6106 37.2809 31.5017 37.2165 31.3831 37.1763C31.2645 37.1361 31.1388 37.121 31.0141 37.132H28.9724V34.4236H39.7155C40.0643 34.438 40.41 34.3522 40.7115 34.1762C41.0131 34.0002 41.2579 33.7414 41.4169 33.4306C41.5915 33.1332 41.6871 32.7961 41.6946 32.4514V12.882C41.641 12.4239 41.4317 11.9981 41.1018 11.6758C40.7719 11.3534 40.3414 11.1541 39.8821 11.1111ZM39.8821 13.0347V32.4514C39.8821 32.5625 39.8335 32.6111 39.7155 32.6111H10.2641C10.153 32.6111 10.1044 32.5625 10.1044 32.4514V12.882H39.8821V13.0417V13.0347Z" fill="url(#paint0_linear_103_38)"/>
<defs>
<linearGradient id="paint0_linear_103_38" x1="25.0141" y1="11.0695" x2="25.0141" y2="38.934" gradientUnits="userSpaceOnUse">
<stop stop-color="#84CFBB"/>
<stop offset="1" stop-color="#151515" stop-opacity="0.5"/>
</linearGradient>
</defs>
</svg>
