<svg width="75" height="75" viewBox="0 0 75 75" fill="none" xmlns="http://www.w3.org/2000/svg">
<path fill-rule="evenodd" clip-rule="evenodd" d="M26.0869 1.63049H48.913C56.1166 1.63049 61.9565 7.47025 61.9565 14.674C61.9565 19.5849 59.2425 23.8619 55.2326 26.087C59.2425 28.3121 61.9565 32.5892 61.9565 37.5001C61.9565 44.7036 56.1166 50.5435 48.913 50.5435C45.0173 50.5435 41.5203 48.8355 39.1304 46.1277V60.3261C39.1304 67.5297 33.2905 73.3696 26.0869 73.3696C18.8832 73.3696 13.0435 67.5297 13.0435 60.3261C13.0435 55.4153 15.7574 51.1383 19.7674 48.9131C15.7574 46.6879 13.0435 42.4109 13.0435 37.5001C13.0435 32.5892 15.7574 28.3121 19.7674 26.087C15.7574 23.8619 13.0435 19.5849 13.0435 14.674C13.0435 7.47025 18.8832 1.63049 26.0869 1.63049ZM58.6956 14.674C58.6956 20.0767 54.316 24.4566 48.913 24.4566H39.1304V4.89136H48.913C54.316 4.89136 58.6956 9.2712 58.6956 14.674ZM35.8695 27.7175V47.2827H26.0869C20.6842 47.2827 16.3043 42.903 16.3043 37.5001C16.3043 32.0971 20.6842 27.7175 26.0869 27.7175H35.8695ZM48.913 27.7175C43.5101 27.7175 39.1304 32.0971 39.1304 37.5001C39.1304 42.903 43.5101 47.2827 48.913 47.2827C54.316 47.2827 58.6956 42.903 58.6956 37.5001C58.6956 32.0971 54.316 27.7175 48.913 27.7175ZM35.8695 50.5435H26.0869C20.6842 50.5435 16.3043 54.9232 16.3043 60.3261C16.3043 65.7291 20.6842 70.1088 26.0869 70.1088C31.4899 70.1088 35.8695 65.7291 35.8695 60.3261V50.5435ZM35.8695 24.4566H26.0869C20.6842 24.4566 16.3043 20.0767 16.3043 14.674C16.3043 9.2712 20.6842 4.89136 26.0869 4.89136H35.8695V24.4566Z" fill="url(#paint0_linear_25_501)"/>
<defs>
<linearGradient id="paint0_linear_25_501" x1="37.5" y1="1.63049" x2="37.5" y2="73.3696" gradientUnits="userSpaceOnUse">
<stop stop-color="#84CFBB"/>
<stop offset="1" stop-color="#151515" stop-opacity="0.5"/>
</linearGradient>
</defs>
</svg>
