<svg width="75" height="75" viewBox="0 0 75 75" fill="none" xmlns="http://www.w3.org/2000/svg">
<path d="M44.2359 23.2852L38.9062 13.0875C38.6343 12.5789 38.107 12.2367 37.5 12.2367C36.8929 12.2367 36.3656 12.5766 36.0984 13.0781L36.0937 13.0875L12.6914 55.0266L44.2359 23.2852ZM62.9343 59.0672L56.3437 18.0633C56.2218 17.3016 55.5679 16.725 54.7804 16.725C54.3375 16.725 53.939 16.9055 53.6507 17.1985L12.0632 59.0696L35.0718 72.0352C35.7421 72.4172 36.5437 72.6446 37.3968 72.6446C38.25 72.6446 39.0539 72.4196 39.7453 72.0235L39.7218 72.0352L62.9343 59.0672ZM13.746 48.2555L20.6718 3.70549C20.7914 2.93674 21.4476 2.35315 22.2421 2.35315C22.8468 2.35315 23.3742 2.69065 23.6414 3.18987L23.646 3.19924L31.0945 17.1727L13.746 48.2555Z" fill="url(#paint0_linear_25_510)"/>
<defs>
<linearGradient id="paint0_linear_25_510" x1="37.4988" y1="2.35315" x2="37.4988" y2="72.6446" gradientUnits="userSpaceOnUse">
<stop stop-color="#84CFBB"/>
<stop offset="1" stop-color="#151515" stop-opacity="0.5"/>
</linearGradient>
</defs>
</svg>
