<svg width="75" height="75" viewBox="0 0 75 75" fill="none" xmlns="http://www.w3.org/2000/svg">
<g clip-path="url(#clip0_25_496)">
<path d="M73.5857 34.1583L40.8395 1.41459C38.9551 -0.471529 35.8963 -0.471529 34.0093 1.41459L27.2096 8.21431L35.8354 16.8401C37.84 16.1628 40.1384 16.6171 41.7365 18.2152C43.342 19.8231 43.7929 22.1413 43.0992 24.1525L51.4123 32.4655C53.4235 31.7726 55.7441 32.2211 57.3504 33.8299C59.5953 36.074 59.5953 39.7113 57.3504 41.957C55.1047 44.2027 51.4674 44.2027 49.2209 41.957C47.5323 40.2667 47.115 37.7865 47.9701 35.7062L40.2174 27.9535L40.2166 48.3551C40.7638 48.6267 41.2806 48.988 41.7365 49.4422C43.9814 51.6863 43.9814 55.3236 41.7365 57.5709C39.4908 59.8158 35.8518 59.8158 33.6094 57.5709C31.3645 55.3236 31.3645 51.6863 33.6094 49.4422C34.1641 48.8884 34.8059 48.4695 35.4906 48.1881V27.5964C34.8059 27.3166 34.1649 26.9002 33.6094 26.3422C31.9085 24.6437 31.4995 22.1479 32.3709 20.0593L23.8686 11.5553L1.41545 34.0068C-0.47149 35.8946 -0.47149 38.9534 1.41545 40.8395L34.1616 73.584C36.0469 75.4701 39.1048 75.4701 40.9926 73.584L73.5857 40.9917C75.4718 39.1048 75.4718 36.0444 73.5857 34.1583Z" fill="url(#paint0_linear_25_496)"/>
</g>
<defs>
<linearGradient id="paint0_linear_25_496" x1="37.5002" y1="0" x2="37.5002" y2="74.9986" gradientUnits="userSpaceOnUse">
<stop stop-color="#84CFBB"/>
<stop offset="1" stop-color="#151515" stop-opacity="0.5"/>
</linearGradient>
<clipPath id="clip0_25_496">
<rect width="75" height="75" fill="white"/>
</clipPath>
</defs>
</svg>
