<svg width="75" height="75" viewBox="0 0 75 75" fill="none" xmlns="http://www.w3.org/2000/svg">
<g clip-path="url(#clip0_25_470)">
<path d="M4.72246 2.4828L9.59011 64.7556C9.66318 65.6907 10.2961 66.4881 11.1903 66.7716L36.804 74.8924C37.2569 75.0359 37.7432 75.0359 38.1962 74.8924L63.8099 66.7716C64.704 66.4881 65.337 65.6907 65.4101 64.7556L70.2777 2.4828C70.3824 1.14397 69.3243 0 67.9815 0H7.01886C5.67605 0 4.61795 1.14397 4.72246 2.4828ZM57.795 21.804H26.0716L27.029 30.6325H57.105L55.1375 55.8013L37.5002 61.3931L19.8628 55.8013L18.835 42.6521H28.0924V49.102L37.7476 51.6933L47.345 49.102L48.0896 38.8227H18.5356L16.5735 13.7198H58.4267L57.795 21.804Z" fill="url(#paint0_linear_25_470)"/>
</g>
<defs>
<linearGradient id="paint0_linear_25_470" x1="37.5001" y1="0" x2="37.5001" y2="75" gradientUnits="userSpaceOnUse">
<stop stop-color="#84CFBB"/>
<stop offset="1" stop-color="#151515"/>
</linearGradient>
<clipPath id="clip0_25_470">
<rect width="75" height="75" fill="white"/>
</clipPath>
</defs>
</svg>
