<svg width="75" height="75" viewBox="0 0 75 75" fill="none" xmlns="http://www.w3.org/2000/svg">
<g clip-path="url(#clip0_25_478)">
<path d="M0 0H75V75H0V0Z" fill="url(#paint0_linear_25_478)"/>
<path d="M19.7203 62.6755L25.4599 59.202C26.5671 61.1652 27.5744 62.8263 29.9905 62.8263C32.3064 62.8263 33.7665 61.9203 33.7665 58.3965V34.4323H40.8146V58.4962C40.8146 65.7962 36.5356 69.1189 30.2926 69.1189C24.6544 69.1189 21.3815 66.1988 19.7202 62.6749" fill="#151515"/>
<path d="M44.6428 61.9203L50.3816 58.5975C51.8923 61.0647 53.8558 62.8769 57.3294 62.8769C60.2497 62.8769 62.112 61.4168 62.112 59.403C62.112 56.9864 60.199 56.1305 56.9769 54.7213L55.2153 53.9656C50.1302 51.8012 46.757 49.0826 46.757 43.3432C46.757 38.057 50.7845 34.0293 57.0778 34.0293C61.5585 34.0293 64.7806 35.5901 67.0962 39.6681L61.6085 43.192C60.4002 41.0274 59.0916 40.1717 57.0779 40.1717C55.0138 40.1717 53.7047 41.4806 53.7047 43.192C53.7047 45.3066 55.0138 46.1626 58.0341 47.4717L59.796 48.2268C65.7871 50.7945 69.1603 53.4122 69.1603 59.3023C69.1603 65.6461 64.1763 69.1195 57.4806 69.1195C50.9358 69.1195 46.7066 65.9983 44.6428 61.9203Z" fill="#151515"/>
</g>
<defs>
<linearGradient id="paint0_linear_25_478" x1="37.5" y1="0" x2="37.5" y2="75" gradientUnits="userSpaceOnUse">
<stop stop-color="#84CFBB"/>
<stop offset="1" stop-color="#151515" stop-opacity="0.5"/>
</linearGradient>
<clipPath id="clip0_25_478">
<rect width="75" height="75" fill="white"/>
</clipPath>
</defs>
</svg>
