<svg width="75" height="75" viewBox="0 0 75 75" fill="none" xmlns="http://www.w3.org/2000/svg">
<g clip-path="url(#clip0_25_518)">
<path d="M71.4999 32.5312C69.9281 33.8506 68.1119 34.8475 66.1549 35.465C64.1979 36.0824 62.1384 36.3084 60.094 36.1299C55.9653 35.7695 52.1489 33.7837 49.4843 30.6094C46.8197 27.4351 45.5252 23.3323 45.8856 19.2035C46.246 15.0748 48.2318 11.2583 51.4061 8.59375L53.1249 7.40625C50.5294 10.1859 49.0368 13.8168 48.9268 17.6182C48.8169 21.4197 50.0972 25.1307 52.5277 28.0558C54.9582 30.9808 58.372 32.919 62.1293 33.507C65.8866 34.0951 69.7294 33.2926 72.9374 31.25L71.4999 32.625M65.9374 45.3125C61.1718 49.3073 55.0144 51.2454 48.8199 50.7004C42.6253 50.1553 36.901 47.1719 32.9061 42.4062C28.9113 37.6406 26.9732 31.4833 27.5183 25.2887C28.0633 19.0942 31.0468 13.3698 35.8124 9.375L38.6874 7.375C34.9879 11.5827 32.9182 16.9765 32.8532 22.5789C32.7883 28.1812 34.7324 33.6216 38.3333 37.9139C41.9342 42.2063 46.9536 45.0667 52.482 45.9768C58.0103 46.8869 63.6818 45.7865 68.4686 42.875L65.9374 45.3125ZM62.4999 60.5625C59.1984 63.3387 55.3824 65.4375 51.2698 66.7389C47.1571 68.0404 42.8284 68.5191 38.5308 68.1477C34.2332 67.7762 30.0509 66.5619 26.2225 64.5742C22.3942 62.5864 18.9949 59.864 16.2186 56.5625C13.4424 53.261 11.3437 49.445 10.0422 45.3324C8.74072 41.2197 8.26204 36.8911 8.63348 32.5934C9.00491 28.2958 10.2192 24.1135 12.207 20.2851C14.1948 16.4568 16.9171 13.0575 20.2186 10.2813L23.6874 7.8125C18.2194 13.6727 15.0878 21.333 14.8846 29.3455C14.6814 37.3579 17.4207 45.1672 22.5846 51.297C27.7486 57.4267 34.9793 61.4522 42.9099 62.6125C50.8405 63.7727 58.9214 61.9873 65.6249 57.5938L62.4999 60.5625Z" fill="url(#paint0_linear_25_518)"/>
</g>
<defs>
<linearGradient id="paint0_linear_25_518" x1="40.7244" y1="7.375" x2="40.7244" y2="68.2697" gradientUnits="userSpaceOnUse">
<stop stop-color="#84CFBB"/>
<stop offset="1" stop-color="#151515" stop-opacity="0.5"/>
</linearGradient>
<clipPath id="clip0_25_518">
<rect width="75" height="75" fill="white"/>
</clipPath>
</defs>
</svg>
