<svg width="75" height="75" viewBox="0 0 75 75" fill="none" xmlns="http://www.w3.org/2000/svg">
<path d="M17.7109 11.7325C16.171 11.7981 4.42783 12.795 3.59346 12.8723C2.75908 12.9403 1.83898 13.3262 2.67335 15.3488C3.50773 17.3715 16.8415 46.7611 17.2165 47.6166C17.5892 48.4697 18.5574 49.8637 20.8191 49.3012C23.1371 48.7293 31.1783 46.5799 35.5728 45.401C37.8908 49.7041 42.627 58.4272 43.5059 59.6741C44.6707 61.3475 45.4826 61.0628 47.2733 60.5026C48.6795 60.0644 69.2014 52.5167 70.1248 52.1347C71.0483 51.741 71.6158 51.4727 70.99 50.5188C70.5283 49.8227 65.1124 42.4045 62.2788 38.5162C64.2241 37.9889 71.133 36.1111 71.8689 35.8978C72.7338 35.6705 72.855 35.2467 72.3816 34.7076C71.9199 34.1686 65.4845 25.9329 64.3524 24.5407C63.2204 23.1485 62.6589 23.3917 61.9675 23.4924C61.2644 23.5932 53.125 24.9971 52.1805 25.1541C51.236 25.3229 50.6425 25.7045 51.2238 26.5366C51.7394 27.2772 57.092 35.0453 58.2779 36.7539L36.9965 41.9632L20.0638 13.0325C19.3935 12.0107 19.2484 11.6528 17.7109 11.7325ZM17.4454 13.7421C17.8415 13.7186 17.7968 13.8073 17.9398 14.0534C17.9398 14.0534 33.5617 41.6269 33.8242 42.1097C34.1101 42.5925 33.9491 42.7401 33.696 42.7963C33.4429 42.8526 21.5207 45.7706 20.8832 45.9183C20.2457 46.0636 20.2464 45.9968 20.1691 45.7718C20.0917 45.5468 6.00133 15.8085 5.80446 15.4358C5.60758 15.0655 5.61696 14.772 5.80446 14.772C5.99196 14.772 17.061 13.7632 17.4454 13.7421ZM62.7457 25.4196C62.9036 25.4562 63.0695 25.5745 63.2675 25.8499C63.6636 26.4007 69.0465 33.3761 69.2551 33.6456C69.4519 33.9058 69.0988 34.0641 68.6371 34.1766C68.1754 34.2774 60.553 36.2091 60.553 36.2091L54.3228 27.4704C54.147 27.2126 54.0058 26.9636 54.4464 26.9074C54.8847 26.8511 61.96 25.5334 62.2788 25.4654C62.4381 25.4256 62.5878 25.383 62.7457 25.4196ZM59.8297 38.9465C59.9768 38.9632 60.1005 39.0674 60.2646 39.3311C60.5857 39.8725 67.1221 48.9415 67.3096 49.2462C67.4971 49.5486 67.69 49.7516 67.0853 49.9649C66.4923 50.1899 46.9089 56.9419 46.5363 57.1106C46.1519 57.2794 45.8518 57.3337 45.369 56.6025C44.8862 55.8712 38.5162 44.6045 38.5162 44.6045L59.2529 39.0884C59.5108 39.0041 59.6827 38.9298 59.8297 38.9465Z" fill="url(#paint0_linear_191_1662)"/>
<defs>
<linearGradient id="paint0_linear_191_1662" x1="37.5001" y1="11.7218" x2="37.5001" y2="60.9388" gradientUnits="userSpaceOnUse">
<stop stop-color="#84CFBB"/>
<stop offset="1" stop-color="#151515" stop-opacity="0.5"/>
</linearGradient>
</defs>
</svg>
