<svg width="75" height="75" viewBox="0 0 75 75" fill="none" xmlns="http://www.w3.org/2000/svg">
<path d="M70.3734 35.4821C70.1813 35.468 69.9586 35.4586 69.7336 35.4586C68.5992 35.4586 67.5141 35.6696 66.5156 36.054L66.5766 36.0329C66.2836 36.15 65.8148 36.15 65.775 36.5227C65.9367 36.6774 65.9602 36.9329 66.0961 37.1485C66.3703 37.6125 66.7078 38.0063 67.1016 38.3344L67.1086 38.3414C67.5188 38.6625 67.9289 38.9743 68.3602 39.2485C69.1219 39.7172 69.9867 39.9961 70.732 40.4672C71.1563 40.7415 71.5898 41.0907 72.0211 41.3836C72.2344 41.5289 72.3727 41.7938 72.6469 41.8875V41.8289C72.5133 41.6532 72.4711 41.3977 72.3398 41.2032C72.143 41.0063 71.9484 40.8305 71.7539 40.6383C71.1727 39.8766 70.5 39.225 69.7453 38.6813L69.7172 38.6625C69.0914 38.236 67.7203 37.6383 67.4625 36.9188L67.425 36.8766C67.9359 36.8039 68.3906 36.6961 68.8289 36.5508L68.7727 36.5672C69.4383 36.3915 70.0477 36.4289 70.7344 36.2579C71.0438 36.1782 71.3578 36.0821 71.6719 35.9836V35.8079C71.3203 35.4563 71.0578 34.9782 70.6945 34.65C69.7359 33.8063 68.6789 33.0141 67.5656 32.3016L67.4602 32.2383C66.8461 31.8469 66.0656 31.5938 65.4188 31.261C65.1844 31.1438 64.793 31.0852 64.657 30.8883C64.3523 30.4547 64.0828 29.9579 63.8695 29.4329L63.8508 29.3813C63.2758 28.2657 62.7414 27.1305 62.2477 25.9758C61.9102 25.0782 61.575 24.3422 61.1977 23.6297L61.2516 23.7399C59.4094 20.6485 56.843 18.1641 53.7797 16.4696L53.6789 16.418C52.9547 16.0594 52.1133 15.7805 51.2297 15.6235L51.1711 15.6141C50.6813 15.5907 50.1938 15.5555 49.7063 15.5344C49.3641 15.3141 49.0688 15.0891 48.7922 14.8407L48.7992 14.8477C47.6859 14.1446 44.8055 12.6211 43.9852 14.6368C43.4578 15.9071 44.768 17.161 45.2203 17.8055C45.5813 18.2344 45.9094 18.7149 46.193 19.2235L46.2164 19.2704C46.3547 19.6102 46.3922 19.9594 46.5305 20.3133C46.8703 21.3727 47.2148 22.2422 47.6063 23.0836L47.5453 22.9383C47.7773 23.4047 48.0188 23.8008 48.2883 24.1758L48.2695 24.1477C48.4266 24.361 48.6961 24.4618 48.7594 24.8133C48.5578 25.2375 48.4008 25.7297 48.3141 26.243L48.3094 26.2758C48.0563 27.054 47.9086 27.9516 47.9086 28.8821C47.9086 30.3375 48.2672 31.7086 48.9 32.9133L48.8766 32.8664C49.1906 33.3516 49.9359 34.4297 50.9344 34.0172C51.8133 33.6657 51.6188 32.5524 51.8719 31.5727C51.9305 31.3383 51.893 31.1836 52.0125 31.0243V31.0688C52.2867 31.6196 52.5633 32.1446 52.8141 32.6954C53.5219 33.7149 54.3633 34.5821 55.3242 35.2969L55.3547 35.318C55.8234 35.6696 56.1961 36.2789 56.782 36.4946V36.436H56.7375C56.6039 36.2907 56.4562 36.1618 56.2945 36.0516L56.2852 36.0469C55.9219 35.6907 55.5844 35.3063 55.2797 34.9008L55.2609 34.875C54.4969 33.8438 53.7703 32.6766 53.1398 31.4508L53.0719 31.3079C52.7508 30.6938 52.4813 30.0305 52.2234 29.4235C52.1063 29.1891 52.1063 28.8375 51.9094 28.7204C51.5625 29.1094 51.2508 29.543 50.9906 30.0094L50.9719 30.0469C50.6719 30.9211 50.475 31.9313 50.4234 32.979V33.0047C50.3438 33.0258 50.3836 33.0047 50.3438 33.0469C49.718 32.8946 49.5023 32.2454 49.268 31.6993C48.9492 30.8414 48.7641 29.8477 48.7641 28.8141C48.7641 27.9797 48.8836 27.1735 49.1086 26.4118L49.0945 26.4727C49.2328 26.0625 49.8188 24.7688 49.5844 24.375C49.4625 24.0024 49.0758 23.7891 48.8602 23.4868C48.6047 23.1258 48.3703 22.7157 48.1758 22.2821L48.157 22.2352C47.6883 21.1407 47.4539 19.9266 46.9453 18.8321C46.6383 18.2602 46.3148 17.768 45.9516 17.3086L45.968 17.3297C45.5813 16.8821 45.225 16.3829 44.9156 15.8532L44.8898 15.8063C44.7938 15.593 44.6555 15.2391 44.8102 15.0047C44.8383 14.8688 44.9461 14.7633 45.0844 14.7422C45.3422 14.5313 46.0688 14.8055 46.3219 14.9227C47.0648 15.204 47.7047 15.5344 48.2977 15.9235L48.2602 15.9C48.5344 16.0922 48.832 16.4649 49.1836 16.561H49.5938C50.2195 16.6993 50.9273 16.6032 51.5133 16.7743C52.5891 17.1375 53.5195 17.5922 54.3797 18.15L54.3305 18.1196C56.918 19.7907 58.9898 22.05 60.3914 24.7196L60.4383 24.8157C60.6727 25.2657 60.7758 25.6805 60.9891 26.1493C61.3992 27.1149 61.9055 28.0922 62.3227 29.025C62.7188 30.0282 63.1875 30.8954 63.7453 31.6946L63.7172 31.6524C64.0102 32.0625 65.1867 32.2758 65.7141 32.4891C66.2695 32.6836 66.7148 32.8688 67.1461 33.0774L67.0594 33.0399C67.732 33.45 68.3883 33.9188 69.0211 34.3688C69.3422 34.5914 70.3195 35.0813 70.3781 35.475L70.3734 35.4821ZM42.8953 52.6219C42.8953 52.6571 42.8977 52.6969 42.8977 52.7368C42.8977 54.0446 42.3141 55.2141 41.3906 56.0016L41.3836 56.0063C40.3711 56.8313 39.0656 57.3329 37.643 57.3329C37.5328 57.3329 37.4227 57.3305 37.3148 57.3235H37.3289C35.5969 57.3 34.0031 56.7375 32.6977 55.7977L32.7211 55.8141L33.4148 54.4196C34.4203 54.9821 35.6156 55.3313 36.8859 55.3805H36.9C36.9633 55.3852 37.0359 55.3875 37.1109 55.3875C37.8891 55.3875 38.6133 55.1438 39.2063 54.729L39.1945 54.736C39.7312 54.3282 40.0734 53.6907 40.0734 52.9735C40.0734 52.9594 40.0734 52.9477 40.0734 52.9336V52.936C40.0734 51.9704 39.4008 51.15 38.175 50.461C37.0383 49.8375 34.7695 48.5368 34.7695 48.5368C33.6492 47.843 32.9156 46.6219 32.9156 45.2297C32.9156 45.1805 32.9156 45.1313 32.918 45.0821V45.0891C32.9156 45.0446 32.9156 44.993 32.9156 44.9414C32.9156 43.7344 33.4477 42.6516 34.2891 41.9157L34.2937 41.911C35.1891 41.1516 36.3586 40.6899 37.6359 40.6899C37.718 40.6899 37.7977 40.6922 37.8773 40.6946H37.8656C37.8867 40.6946 37.9125 40.6946 37.9383 40.6946C39.4359 40.6946 40.8305 41.1422 41.993 41.9133L41.9648 41.8969L41.3414 43.2915C40.425 42.879 39.3563 42.6305 38.2313 42.6188H38.2266C38.1703 42.6141 38.107 42.6118 38.0414 42.6118C37.3852 42.6118 36.7805 42.8415 36.307 43.2258L36.3117 43.2211C35.8688 43.5891 35.5875 44.1399 35.5852 44.7563C35.5852 45.7172 36.2695 46.5422 37.5352 47.2454C38.6859 47.8758 41.0109 49.2071 41.0109 49.2071C42.1547 49.8797 42.9117 51.1032 42.9117 52.5047C42.9117 52.5469 42.9117 52.5914 42.9094 52.6336V52.6266L42.8953 52.6219ZM47.7516 53.8664C47.1117 52.5891 46.7391 51.0844 46.7391 49.493C46.7391 49.2422 46.7484 48.9938 46.7672 48.75L46.7648 48.7829C46.7648 44.7032 48.0047 42.6625 50.4844 42.661C50.5453 42.6563 50.618 42.6539 50.693 42.6539C51.8063 42.6539 52.7836 43.2352 53.3391 44.1118L53.3461 44.1235C53.9813 45.3938 54.3539 46.8938 54.3539 48.4782C54.3539 48.7219 54.3445 48.9633 54.3281 49.2024L54.3305 49.1696C54.3305 53.2821 53.0906 55.3399 50.6109 55.343C50.5477 55.3477 50.475 55.35 50.4023 55.35C49.2891 55.35 48.3094 54.7688 47.7539 53.8922L47.7469 53.8805L47.7516 53.8664ZM57.3938 57.5039L54.4172 56.0391C54.6891 55.8118 54.9328 55.5727 55.1578 55.3149L55.1648 55.3079C56.3672 53.686 57.0891 51.6446 57.0891 49.4368C57.0891 49.1813 57.0797 48.9282 57.0609 48.6774L57.0633 48.7102C57.0633 43.3508 54.9594 40.6696 50.7516 40.6664C50.6578 40.6618 50.5477 40.6594 50.4375 40.6594C48.6398 40.6594 47.025 41.4493 45.9258 42.7032L45.9211 42.7102C44.7234 44.3321 44.0039 46.3711 44.0039 48.5789C44.0039 48.8274 44.0133 49.0735 44.032 49.3172L44.0297 49.2844C44.0086 49.5211 43.9969 49.7977 43.9969 50.0766C43.9969 52.125 44.6391 54.0235 45.7313 55.5821L45.7102 55.5516C46.7625 56.6719 48.2555 57.3704 49.9078 57.3704C50.0625 57.3704 50.2148 57.3633 50.3648 57.3516L50.3438 57.354C50.3648 57.354 50.393 57.354 50.4188 57.354C51.1477 57.354 51.8531 57.2485 52.5211 57.054L52.4695 57.068L56.3508 59.3297L57.4055 57.5086L57.3938 57.5039ZM67.1156 57.1079H59.4117V40.9125H62.0039V55.118H67.1156V57.1079ZM31.0195 45.1594C30.3469 50.0438 28.807 54.4524 26.5547 58.4016L26.6484 58.2211C25.7461 59.9579 24.0398 61.1672 22.0359 61.3618L22.0125 61.3641C21.4055 61.3313 20.8406 61.186 20.3273 60.9493L20.3555 60.961V59.5149C20.6766 59.5641 21.0469 59.5922 21.4242 59.5922C21.4453 59.5922 21.4664 59.5922 21.4898 59.5922C21.5273 59.5946 21.5672 59.5946 21.6094 59.5946C22.2867 59.5946 22.9078 59.3485 23.3859 58.9383L23.3812 58.9407C23.8969 58.5165 24.2273 57.8836 24.2461 57.1711C24.1219 56.1446 23.8852 55.2071 23.5453 54.3235L23.5734 54.4032L20.6039 45.1594H23.2688L25.3992 52.0711C25.7789 53.0461 25.9992 54.1758 25.9992 55.3547C25.9992 55.3571 25.9992 55.3594 25.9992 55.3594C27.1289 52.4016 27.9867 48.9516 28.4227 45.3727L28.4437 45.1571L31.0195 45.1594ZM19.2539 57.1079H16.5398C16.4633 52.7938 16.2 48.4883 15.75 44.1914H15.7266L11.5969 57.1079H9.53203L5.43047 44.1914H5.40234C5.08203 48.4899 4.89141 52.7954 4.83047 57.1079H2.35547C2.51641 51.35 2.91641 45.9508 3.55547 40.9102H6.92344L10.8328 52.8141H10.8562L14.8008 40.9102H18.007C18.7164 46.8118 19.1344 52.211 19.2609 57.1079H19.2539ZM50.4023 18.4665C50.3977 18.4665 50.3906 18.4665 50.3836 18.4665C50.1047 18.4665 49.8352 18.5016 49.5773 18.5672L49.6008 18.5625V18.6H49.6406C49.8422 18.9 50.0484 19.1602 50.2711 19.404L50.2664 19.3993C50.4234 19.7133 50.5594 20.025 50.7164 20.3368L50.7563 20.2922C51.0117 20.0907 51.1734 19.7813 51.1734 19.4344C51.1734 19.3922 51.1711 19.3524 51.1664 19.3102V19.3149C51.0492 19.1766 51.0328 19.0407 50.932 18.9047C50.8148 18.7079 50.5641 18.6118 50.4047 18.4571L50.4023 18.4665Z" fill="url(#paint0_linear_25_504)"/>
<defs>
<linearGradient id="paint0_linear_25_504" x1="37.5012" y1="13.6321" x2="37.5012" y2="61.3641" gradientUnits="userSpaceOnUse">
<stop stop-color="#84CFBB"/>
<stop offset="1" stop-color="#151515" stop-opacity="0.5"/>
</linearGradient>
</defs>
</svg>
