<svg width="50" height="50" viewBox="0 0 50 50" fill="none" xmlns="http://www.w3.org/2000/svg">
<path d="M47.8701 36.175C47.6998 35.1188 47.3482 34.1719 46.8482 33.3235L46.8686 33.361C46.6904 33.0703 46.3982 32.8656 46.0545 32.8094L46.0482 32.8078L32.0342 30.5828C31.9795 30.5735 31.9154 30.5688 31.8514 30.5688C31.5279 30.5688 31.2342 30.6985 31.0217 30.9094C29.967 31.9719 29.1561 33.2782 28.6842 34.7375L28.6654 34.8063C22.392 32.2438 17.5107 27.361 15.0061 21.2532L14.9467 21.0891C16.4732 20.5969 17.7811 19.7875 18.842 18.7313C19.0545 18.5188 19.1857 18.225 19.1857 17.9016C19.1857 17.8375 19.1811 17.775 19.1701 17.7125L19.1717 17.7188L16.9482 3.70315C16.8904 3.35159 16.6842 3.05784 16.3967 2.8844L16.392 2.88127C15.6029 2.41252 14.6826 2.06877 13.6998 1.90315L13.6529 1.8969C13.2107 1.7844 12.7029 1.72034 12.1795 1.72034C12.0811 1.72034 11.9826 1.7219 11.8842 1.72659H11.8982C6.43262 1.76565 2.01387 6.18752 1.97949 11.65V11.6531C2.00293 31.5922 18.1592 47.75 38.0967 47.7719C43.5654 47.7391 47.992 43.3157 48.0264 37.8516V37.8485C48.0264 37.8094 48.0279 37.7641 48.0279 37.7172C48.0279 37.1703 47.9701 36.6375 47.8623 36.1219L47.8717 36.1719L47.8701 36.175ZM38.0982 45.4313C19.4529 45.4094 4.34512 30.3 4.32324 11.6578C4.35293 7.47971 7.73262 4.10002 11.9092 4.0719H11.9123C11.9342 4.0719 11.9592 4.0719 11.9842 4.0719C12.4139 4.0719 12.8342 4.11877 13.2373 4.20627L13.1982 4.19846C13.7717 4.29221 14.2842 4.45159 14.7639 4.66877L14.7248 4.65315L16.7576 17.4672C15.7764 18.2938 14.5639 18.8766 13.2311 19.1094L13.1857 19.1157C12.6311 19.2157 12.217 19.6938 12.217 20.2703C12.217 20.4078 12.2404 20.5391 12.2842 20.661L12.2811 20.6532C15.0514 28.5781 21.1811 34.7063 28.9154 37.4188L29.1045 37.4766C29.2186 37.5172 29.3498 37.5406 29.4857 37.5406C29.7045 37.5406 29.9107 37.4813 30.0857 37.3766L30.0811 37.3797C30.3717 37.2063 30.5779 36.9188 30.6389 36.5813L30.6404 36.5735C30.8795 35.1938 31.4623 33.9797 32.2982 32.986L32.2889 32.9969L45.1029 35.0328C45.3107 35.4953 45.4748 36.0344 45.567 36.5969L45.5717 36.6344C45.642 36.9656 45.6826 37.3453 45.6826 37.7344C45.6826 37.7719 45.6826 37.811 45.6811 37.8485V37.8422C45.6561 42.0219 42.2764 45.4031 38.0998 45.4313H38.0982Z" fill="#84CFBB"/>
</svg>
