<svg width="75" height="75" viewBox="0 0 75 75" fill="none" xmlns="http://www.w3.org/2000/svg">
<g clip-path="url(#clip0_25_499)">
<path d="M21.9062 31.8969H18.9562L17.3469 40.1719H19.9656C21.7031 40.1719 22.9969 39.8438 23.8469 39.1906C24.6969 38.5344 25.2687 37.4438 25.5656 35.9125C25.8531 34.4438 25.7219 33.4063 25.1781 32.8031C24.6313 32.2 23.5438 31.8969 21.9062 31.8969ZM37.5 17.775C16.7906 17.775 0 26.6063 0 37.5C0 48.3938 16.7906 57.2281 37.5 57.2281C58.2094 57.2281 75 48.3938 75 37.5C75 26.6063 58.2094 17.775 37.5 17.775ZM27.3125 41.0594C26.4969 41.8406 25.5156 42.4281 24.4469 42.7813C23.3969 43.1188 22.0562 43.2938 20.4312 43.2938H16.7406L15.7188 48.5469H11.4125L15.2563 28.7781H23.5375C26.0281 28.7781 27.8438 29.4313 28.9875 30.7406C30.1313 32.0469 30.475 33.8719 30.0187 36.2156C29.844 37.1431 29.5222 38.0366 29.0656 38.8625C28.6187 39.6594 28.0344 40.3938 27.3125 41.0594ZM39.8875 43.2938L41.5844 34.5469C41.7812 33.5532 41.7062 32.8719 41.3719 32.5125C41.0375 32.15 40.3219 31.9688 39.225 31.9688H35.8125L33.6125 43.2969H29.3375L33.1813 23.525H37.4531L36.4313 28.7813H40.2375C42.6344 28.7813 44.2844 29.2 45.1937 30.0344C46.1031 30.8688 46.375 32.2219 46.0156 34.0938L44.2281 43.2938H39.8875ZM63.6281 36.2156C63.4562 37.1438 63.1343 38.0378 62.675 38.8625C62.2281 39.6594 61.6438 40.3938 60.9219 41.0594C60.1058 41.8383 59.1271 42.4264 58.0562 42.7813C57.0062 43.1188 55.6656 43.2938 54.0375 43.2938H50.35L49.3281 48.55H45.0219L48.8656 28.7813H57.1437C59.6344 28.7813 61.45 29.4344 62.5938 30.7438C63.7375 32.0469 64.0844 33.8719 63.6281 36.2156ZM55.5188 31.8969H52.5719L50.9594 40.1719H53.5781C55.3188 40.1719 56.6125 39.8438 57.4594 39.1906C58.3094 38.5344 58.8812 37.4438 59.1812 35.9125C59.4688 34.4438 59.3344 33.4063 58.7906 32.8031C58.2469 32.2 57.1531 31.8969 55.5188 31.8969Z" fill="url(#paint0_linear_25_499)"/>
</g>
<defs>
<linearGradient id="paint0_linear_25_499" x1="37.5" y1="17.775" x2="37.5" y2="57.2281" gradientUnits="userSpaceOnUse">
<stop stop-color="#84CFBB"/>
<stop offset="1" stop-color="#151515" stop-opacity="0.5"/>
</linearGradient>
<clipPath id="clip0_25_499">
<rect width="75" height="75" fill="white"/>
</clipPath>
</defs>
</svg>
