<svg width="75" height="75" viewBox="0 0 75 75" fill="none" xmlns="http://www.w3.org/2000/svg">
<path d="M43.7788 37.4435C43.7788 34.0816 40.9679 31.3558 37.5001 31.3558C34.0328 31.3558 31.2214 34.0816 31.2214 37.4435C31.2214 40.8058 34.0328 43.5314 37.5001 43.5314C40.9679 43.5314 43.7788 40.8058 43.7788 37.4435Z" fill="url(#paint0_linear_25_485)"/>
<path fill-rule="evenodd" clip-rule="evenodd" d="M57.8916 26.1415C59.2174 20.9175 60.8841 11.23 55.0088 7.94568C49.1609 4.67566 41.5509 10.9416 37.5326 14.7028C33.5259 10.9791 25.7023 4.73993 19.8319 8.0347C13.9864 11.3157 15.789 20.8425 17.1443 26.0993C11.6914 27.6009 2.34375 30.8353 2.34375 37.4435C2.34375 44.033 11.6816 47.5519 17.1023 49.0521C15.742 54.338 14.0296 63.7287 19.8827 67.0024C25.7749 70.2966 33.5742 64.2059 37.6298 60.4036C41.674 64.1869 49.2108 70.3174 55.0598 67.0345C60.9272 63.7413 59.3991 54.1837 58.0437 48.8965C63.2984 47.393 72.6562 43.9507 72.6562 37.4435C72.6562 30.8988 63.2585 27.6382 57.8916 26.1415ZM57.2255 46.0945C56.3355 43.3631 55.1344 40.4585 53.6651 37.458C55.0676 34.5284 56.2221 31.6612 57.0872 28.9474C61.0216 30.0534 69.6527 32.5812 69.6527 37.4435C69.6527 42.3516 61.3702 44.9032 57.2255 46.0945ZM53.5547 64.5141C49.1906 66.9633 42.708 61.1006 39.7214 58.3146C41.7028 56.2134 43.6828 53.7708 45.6152 51.0584C49.0146 50.7661 52.2258 50.288 55.1381 49.6352C56.092 53.3752 57.938 62.0538 53.5547 64.5141ZM21.3835 64.4791C17.019 62.0391 19.0139 53.6592 20.0146 49.7655C22.8945 50.3834 26.0827 50.8277 29.49 51.0956C31.4351 53.7497 33.4725 56.1893 35.5256 58.3259C32.989 60.705 25.7684 66.9305 21.3835 64.4791ZM5.34724 37.4435C5.34724 32.5172 13.9267 30.0077 17.9509 28.9045C18.8309 31.6793 19.985 34.5806 21.3779 37.5145C19.967 40.492 18.7963 43.4393 17.9082 46.2469C14.0711 45.1819 5.34724 42.3729 5.34724 37.4435ZM21.3368 10.5552C25.7191 8.09568 32.5188 14.0855 35.4279 16.7816C33.3853 18.9083 31.3666 21.3295 29.4382 23.9684C26.1314 24.2655 22.9658 24.7427 20.0557 25.3821C18.9639 21.1423 16.9592 13.012 21.3368 10.5552ZM47.764 27.1338C50.0074 27.4083 52.1569 27.7734 54.1751 28.2202C53.5692 30.1031 52.8141 32.0721 51.9246 34.0905C50.6353 31.7187 49.2513 29.3944 47.764 27.1338ZM37.5335 18.8627C38.9189 20.3179 40.3064 21.9429 41.6714 23.7059C38.9027 23.5788 36.1296 23.5784 33.3609 23.704C34.7271 21.9574 36.1266 20.3348 37.5335 18.8627ZM23.1012 34.0884C22.2265 32.077 21.4781 30.0994 20.8669 28.1895C22.8731 27.7542 25.0125 27.3984 27.2414 27.1284C25.7498 29.3841 24.3682 31.7074 23.1012 34.0884ZM27.3054 47.9665C25.0029 47.7173 22.8311 47.3796 20.8255 46.9563C21.4463 45.0129 22.2112 42.9926 23.1046 40.9378C24.3891 43.3437 25.7918 45.6895 27.3054 47.9665ZM37.6167 56.2301C36.1931 54.7406 34.773 53.0932 33.3862 51.3213C36.1706 51.4273 38.9604 51.4275 41.7445 51.307C40.3753 53.1112 38.9927 54.761 37.6167 56.2301ZM51.9532 40.8333C52.893 42.9103 53.6852 44.9196 54.3145 46.8302C52.2757 47.2814 50.0747 47.6447 47.7555 47.9145C49.2539 45.611 50.6599 43.2506 51.9532 40.8333ZM43.939 48.2674C39.6799 48.5625 35.3944 48.5592 31.1339 48.2916C28.713 44.8629 26.558 41.257 24.6977 37.5136C26.5491 33.7779 28.6884 30.1791 31.0978 26.7558C35.3613 26.4434 39.6511 26.4424 43.9146 26.7577C46.3034 30.1807 48.4395 33.7702 50.3337 37.4721C48.462 41.2059 46.3113 44.812 43.939 48.2674ZM53.5085 10.4686C57.892 12.92 55.9409 21.6264 54.9832 25.4123C52.0662 24.7596 48.8984 24.274 45.582 23.9721C43.6498 21.3048 41.648 18.8793 39.6384 16.7801C42.5848 14.026 49.1674 8.04115 53.5085 10.4686Z" fill="url(#paint1_linear_25_485)"/>
<defs>
<linearGradient id="paint0_linear_25_485" x1="37.5001" y1="31.3558" x2="37.5001" y2="43.5314" gradientUnits="userSpaceOnUse">
<stop stop-color="#84CFBB"/>
<stop offset="1" stop-color="#151515" stop-opacity="0.5"/>
</linearGradient>
<linearGradient id="paint1_linear_25_485" x1="37.5" y1="7.03125" x2="37.5" y2="67.9688" gradientUnits="userSpaceOnUse">
<stop stop-color="#84CFBB"/>
<stop offset="1" stop-color="#151515" stop-opacity="0.5"/>
</linearGradient>
</defs>
</svg>
