<svg width="75" height="75" viewBox="0 0 75 75" fill="none" xmlns="http://www.w3.org/2000/svg">
<g clip-path="url(#clip0_25_534)">
<path d="M39.4188 23.4178C38.7564 24.0806 38.7564 25.1549 39.4192 25.8176C40.0819 26.4804 41.1564 26.4803 41.8188 25.8173L43.2199 24.4157C43.7238 23.9116 43.8591 23.1463 43.5582 22.5C42.6233 20.4909 42.1492 18.4125 42.1492 16.3222C42.1492 12.0667 44.0016 8.05859 47.1262 5.28936L47.1316 16.397C47.1318 16.9534 47.405 17.4745 47.8624 17.7913L55.9132 23.3661C56.494 23.7682 57.2636 23.7685 57.8445 23.3664L65.8982 17.7945C66.3564 17.4775 66.6297 16.9561 66.6297 16.3989L66.6285 5.2919C69.7527 8.05859 71.6053 12.0635 71.6064 16.3154C71.6064 20.2503 70.0743 23.9499 67.2922 26.7326C64.5123 29.5132 60.8172 31.0439 56.8863 31.0439C56.8826 31.0439 56.8787 31.0439 56.8748 31.0439C55.5223 31.0429 52.8672 30.3881 51.9582 30.1357C51.3689 29.9718 50.7367 30.1383 50.3042 30.5706L45.1455 35.7295C44.4828 36.3921 44.4828 37.4666 45.1455 38.1293C45.4768 38.4606 45.9111 38.6264 46.3453 38.6264C46.7795 38.6264 47.2139 38.4606 47.5451 38.1293L52.0168 33.6575C53.2634 33.9658 55.4064 34.4365 56.8721 34.4375C56.8772 34.4375 56.8814 34.4375 56.8863 34.4375C61.7232 34.4374 66.271 32.5534 69.6918 29.1319C73.1147 25.7084 74.9997 21.1568 74.9997 16.315C74.9982 9.79343 71.4596 3.74592 65.765 0.532288C65.2397 0.235852 64.5964 0.240433 64.0753 0.544675C63.5544 0.848917 63.234 1.40684 63.2342 2.01023L63.2356 15.5097L56.8792 19.9072L50.5251 15.5068L50.5185 2.00633C50.5181 1.4031 50.1976 0.845354 49.6767 0.541451C49.1557 0.237379 48.5125 0.233137 47.9871 0.529743C42.2931 3.74626 38.7559 9.7975 38.7559 16.322C38.7559 18.5258 39.1767 20.709 40.0086 22.8282L39.4188 23.4178Z" fill="#84CFBB"/>
<path d="M34.9256 45.9497L11.3868 69.4894C10.5022 70.3744 9.32631 70.8621 8.07574 70.863C8.07489 70.863 8.07421 70.863 8.0732 70.863C6.82297 70.8628 5.64689 70.3755 4.76251 69.4911C3.87829 68.6058 3.39197 67.4284 3.3935 66.1753C3.39486 64.9259 3.88202 63.7531 4.76743 62.8705L25.0139 42.6222C25.6765 41.9596 25.6765 40.8854 25.0139 40.2226C24.3512 39.5601 23.2768 39.56 22.6142 40.2228L2.36997 60.469C0.84418 61.9896 0.00255102 64.0147 5.77586e-06 66.1714C-0.00253947 68.3316 0.836205 70.3624 2.36234 71.8902C3.88847 73.4164 5.91652 74.2566 8.0732 74.2566C8.07472 74.2566 8.07625 74.2566 8.07761 74.2566C10.2345 74.2554 12.2622 73.4143 13.7869 71.8887L37.3252 48.3496C37.9878 47.6869 37.9878 46.6125 37.3252 45.9497C36.6624 45.2873 35.5882 45.2873 34.9256 45.9497Z" fill="#84CFBB"/>
<path d="M8.04931 64.115C7.49037 64.1153 6.96537 64.3337 6.57781 64.7233C5.76214 65.5339 5.75807 66.8584 6.56865 67.6755C6.57069 67.6777 6.57272 67.6795 6.57476 67.6817C6.98115 68.0871 7.51463 68.29 8.04897 68.29C8.58449 68.29 9.12086 68.0861 9.5303 67.6775C10.3424 66.8615 10.34 65.5369 9.52843 64.7279C9.13392 64.3325 8.60926 64.115 8.05066 64.115C8.05032 64.115 8.04981 64.115 8.04931 64.115Z" fill="#84CFBB"/>
<path d="M63.5263 55.5131C63.3505 55.3374 63.1384 55.2025 62.9049 55.1177L58.0389 53.3533L40.4617 35.7758L43.3027 32.935C43.9653 32.2724 43.9655 31.198 43.3027 30.5352C42.7998 30.0326 42.0598 29.9111 41.4425 30.1714L14.8562 3.58811C13.2483 1.97493 11.1068 1.08511 8.82648 1.0824C8.82308 1.0824 8.82003 1.0824 8.81664 1.0824C6.53626 1.0824 4.39282 1.96916 2.77998 3.58014C1.16511 5.19501 0.276476 7.34116 0.277834 9.6234C0.279021 11.9038 1.16833 14.0479 2.78151 15.6602L29.3682 42.2457C29.1079 42.8628 29.229 43.6028 29.732 44.1058C30.3947 44.7682 31.4692 44.7685 32.1316 44.1058L34.972 41.2654L52.5493 58.8426L54.3138 63.7088C54.3985 63.9422 54.5334 64.1545 54.7092 64.3301L64.5718 74.1926C64.9032 74.5239 65.3375 74.6896 65.7717 74.6896C66.2059 74.6896 66.6403 74.5239 66.9715 74.1926L73.3887 67.7754C73.7069 67.4571 73.8858 67.0256 73.8858 66.5756C73.8858 66.1256 73.7069 65.6941 73.3887 65.3757L63.5263 55.5131ZM36.8619 34.576C36.8583 34.5796 36.8546 34.5835 36.851 34.587L31.6799 39.7581L5.18083 13.2602C4.20821 12.2881 3.67218 10.996 3.6715 9.62171C3.67082 8.24659 4.20634 6.95327 5.17896 5.98064C6.1504 5.01023 7.44203 4.47623 8.81664 4.47623C8.81867 4.47623 8.82071 4.47623 8.82257 4.47623C10.1958 4.47776 11.4847 5.01328 12.4543 5.9859L38.9546 32.4835L36.8729 34.5651C36.8694 34.5687 36.8656 34.5723 36.8619 34.576ZM65.7717 70.5931L57.3757 62.1972L55.6112 57.331C55.5265 57.0976 55.3916 56.8853 55.2158 56.7097L37.3718 38.8658L38.0621 38.1757L55.9059 56.0197C56.0817 56.1954 56.2938 56.3302 56.5273 56.4151L61.3933 58.1795L69.7893 66.5754L65.7717 70.5931Z" fill="#84CFBB"/>
<path d="M10.0079 8.41175C9.34534 7.74931 8.2709 7.74931 7.60829 8.41175C6.94567 9.07436 6.94567 10.1488 7.60829 10.8116L31.0163 34.2194C31.3475 34.5506 31.7819 34.7164 32.2161 34.7164C32.6503 34.7164 33.0847 34.5506 33.4159 34.2194C34.0785 33.5568 34.0785 32.4823 33.4159 31.8196L10.0079 8.41175Z" fill="#84CFBB"/>
</g>
<defs>
<clipPath id="clip0_25_534">
<rect width="75" height="75" fill="white"/>
</clipPath>
</defs>
</svg>
