<svg width="75" height="75" viewBox="0 0 75 75" fill="none" xmlns="http://www.w3.org/2000/svg">
<g clip-path="url(#clip0_25_508)">
<path d="M64.5304 41.7094C64.6218 41.707 64.7296 41.7047 64.8397 41.7047C66.7944 41.7047 68.6436 42.1594 70.2843 42.9703L70.2116 42.9375C71.7069 43.6664 72.9351 44.7445 73.8233 46.0664L73.8444 46.0992C74.5452 47.1211 74.9624 48.3844 74.9624 49.7438C74.9624 49.8422 74.9601 49.9406 74.9554 50.0367V50.0227C74.8827 51.3797 74.2663 52.5773 73.3194 53.4164L73.3147 53.4211C72.7968 53.9297 72.171 54.3281 71.4749 54.5812L71.4397 54.593C71.0491 54.6711 70.8343 54.6125 70.7952 54.4172C70.7561 54.2219 70.9319 54.007 71.3225 53.7727C72.3819 53.1305 73.1483 52.0945 73.4272 50.8734L73.4343 50.843C73.4413 50.7445 73.446 50.6297 73.446 50.5125C73.446 49.7836 73.2726 49.0945 72.9655 48.4852L72.9772 48.5109C72.4686 47.4492 71.7093 46.5773 70.7741 45.9469L70.7507 45.9328C69.3515 45.0328 67.6733 44.4422 65.8686 44.2945L65.8311 44.2922C65.2171 44.2008 64.5093 44.1492 63.7874 44.1492C61.91 44.1492 60.1171 44.5031 58.4671 45.1477L58.5655 45.1125C58.9054 45.907 59.1186 46.8281 59.1491 47.7938V47.8055C59.1116 49.7859 58.0476 51.5086 56.4655 52.4695L56.4397 52.4836C55.7132 52.9992 54.8835 53.4516 53.9999 53.8031L53.9179 53.8312C53.3811 54.0938 52.7507 54.2461 52.0851 54.2461C52.0077 54.2461 51.9327 54.2438 51.8577 54.2391H51.8694C50.3866 53.9281 50.0351 52.6391 50.8147 50.3719C51.1546 49.3852 51.6304 48.5297 52.2327 47.7773L52.2186 47.7938C52.9897 46.7859 53.8358 45.9023 54.771 45.1195L54.7968 45.0984L54.5671 44.7562C54.1382 44.025 53.7444 43.1742 53.428 42.2859L53.3952 42.1781C53.1608 41.3969 52.9655 40.6555 52.8093 39.9539L52.6921 39.1336L51.5202 41.3578C50.5046 43.2328 49.528 44.8727 48.5905 46.2773L48.239 46.8633C48.6327 47.8195 48.9233 48.9281 49.0546 50.0859L49.0593 50.1445C49.0686 50.2547 49.0733 50.3859 49.0733 50.5172C49.0733 52.2938 48.1968 53.8641 46.8515 54.8227L46.8351 54.8344C46.1929 55.2305 45.4265 55.6406 44.6319 56.0062L44.4913 56.0648C43.664 56.4234 42.7054 56.6578 41.6999 56.7094H41.6788C41.6015 56.7141 41.5101 56.7188 41.4186 56.7188C40.8327 56.7188 40.2772 56.5852 39.7804 56.3484L39.8038 56.3578C39.5061 56.1023 39.3186 55.7273 39.3186 55.3078C39.3186 55.0945 39.3679 54.8906 39.4546 54.7102L39.4499 54.7195C40.3874 53.4047 41.3108 52.2609 42.2929 51.1688L42.2624 51.2039L44.8405 47.925L44.3741 46.8703C43.9991 46.1813 43.6405 45.368 43.3522 44.5242L43.3194 44.4117C43.0851 43.6305 42.8897 42.8891 42.7335 42.1875L42.6163 41.3672L41.4444 44.1797C40.5085 46.3656 39.6491 48.2398 38.8663 49.8023C37.6991 52.1461 36.7226 53.943 35.9366 55.193L35.7022 55.5445C34.7663 57.0273 33.8679 57.7688 33.0069 57.7688C32.146 57.7688 31.5624 57.2219 31.2562 56.1281C31.0312 55.3219 30.8999 54.3961 30.8999 53.4398C30.8999 53.3555 30.8999 53.2711 30.9022 53.1867V53.1984L31.1366 51.5578V51.675C30.5116 53.1578 29.8866 54.5242 29.2616 55.7742C28.8468 56.5852 28.4202 57.2766 27.9421 57.9281L27.9726 57.8836C27.4897 58.3898 26.8101 58.7039 26.0577 58.7039C26.0507 58.7039 26.046 58.7039 26.039 58.7039C25.9897 58.7086 25.9335 58.7086 25.8772 58.7086C25.2843 58.7086 24.7452 58.4836 24.3374 58.1156L24.3397 58.118C23.5218 57.2789 22.9147 56.2313 22.6007 55.0617L22.589 55.0125C22.2046 53.9461 21.9843 52.7133 21.9843 51.4289C21.9843 51.2625 21.989 51.0984 21.996 50.9367V50.9602C22.1812 49.0945 22.5538 47.3859 23.0999 45.757L23.0507 45.9234L18.8343 48.3844V48.5016C19.446 49.7719 19.8046 51.2625 19.8046 52.8375C19.8046 53.1258 19.7929 53.4117 19.7694 53.693L19.7718 53.6555C19.6476 56.0695 18.8765 58.2797 17.6319 60.1477L17.6624 60.1008C16.3569 62.1727 14.4749 63.7734 12.239 64.6992L12.1616 64.7273C10.903 65.2922 9.43115 65.6227 7.88428 65.6227C6.90459 65.6227 5.95303 65.4914 5.05303 65.243L5.12803 65.2594C4.38271 65.0086 3.77334 64.5117 3.38662 63.8695L3.37959 63.8555C2.8335 63.0633 2.48896 62.0953 2.43506 61.0523V61.0383C2.40928 60.8016 2.39521 60.5273 2.39521 60.2484C2.39521 59.0461 2.66943 57.907 3.15928 56.8922L3.13818 56.9391C4.4835 54.6445 6.34443 52.7859 8.56631 51.4781L8.63662 51.4406C10.2093 50.3508 12.0163 49.2938 13.903 48.3727L14.1515 48.2625L14.7374 47.9109C14.0343 47.3641 12.7452 46.4266 10.8702 45.0984C8.36475 43.4203 6.1874 41.7258 4.13428 39.893L4.19287 39.9445C2.20771 38.2359 0.761621 35.9531 0.112402 33.3539L0.0936523 33.2648C0.0327148 32.9039 -0.00244141 32.4891 -0.00244141 32.0672C-0.00244141 30.7453 0.337402 29.5031 0.932715 28.4227L0.913965 28.4625C2.22646 25.6406 4.04521 23.2617 6.27646 21.3492L6.30459 21.3258C8.71865 19.0453 11.4515 17.0602 14.4187 15.4523L14.6226 15.3516C17.2733 13.8211 20.3694 12.3984 23.5968 11.257L23.9952 11.1352C26.9929 10.0383 30.4546 9.39609 34.064 9.38438H34.0686C34.2327 9.37969 34.4272 9.375 34.6218 9.375C37.5304 9.375 40.2819 10.0477 42.7288 11.2453L42.621 11.1961C44.7304 12.157 46.3101 13.9664 46.9429 16.1789L46.9569 16.2352C47.1515 16.9898 47.2616 17.857 47.2616 18.75C47.2616 20.2312 46.9546 21.6422 46.4038 22.9219L46.4296 22.8539C45.4265 25.2844 43.9991 27.3539 42.2179 29.0578L42.2108 29.0648C40.4061 30.8531 38.2429 32.2828 35.8405 33.2367L35.7116 33.2812C33.1944 34.3617 30.2718 35.0414 27.2038 35.1539L27.1593 35.1562C26.7093 35.2078 26.189 35.2359 25.6616 35.2359C24.2741 35.2359 22.9358 35.0367 21.6702 34.6641L21.771 34.6898C20.639 34.3289 19.6616 33.7687 18.8319 33.0422L18.8413 33.0492C18.2601 32.5758 17.7866 31.9922 17.4491 31.3289L17.4351 31.2984C17.2007 30.6734 17.1812 30.3023 17.3765 30.1852C17.5718 30.068 17.7085 30.0484 17.7866 30.1266L18.3726 30.7125C19.0265 31.3195 19.8069 31.7977 20.6694 32.1023L20.7163 32.1164C21.9022 32.5289 23.271 32.768 24.6937 32.768C25.1507 32.768 25.6007 32.7445 26.0437 32.6953L25.9897 32.7C29.7819 32.2523 33.2015 30.9586 36.1522 29.0133L36.0655 29.0672C38.5593 27.5836 40.5772 25.5445 41.9976 23.1141L42.0397 23.0344C42.7452 21.9984 43.1671 20.7188 43.1671 19.3406C43.1671 18.4945 43.0077 17.6836 42.7171 16.9383L42.7335 16.9828C41.8569 15.5977 40.439 14.6227 38.7843 14.3531L38.7515 14.3484C37.4671 14.032 35.9905 13.8492 34.4741 13.8492C33.253 13.8492 32.0577 13.9664 30.9022 14.1914L31.0194 14.1727C27.0655 14.8852 23.5312 16.1063 20.271 17.7844L20.4843 17.6836C10.878 22.5273 5.91787 27.4875 5.60381 32.5641V32.6789C5.60381 34.725 6.40771 36.5836 7.71787 37.957L7.71553 37.9547C9.2085 39.6141 10.8585 41.0789 12.6608 42.3445L12.7522 42.4055C14.3952 43.6336 15.8483 44.9016 17.2007 46.2703L17.203 46.275L17.4374 46.5094L24.9374 42.4102C25.7929 41.1727 26.8218 40.1273 28.003 39.2836L28.0405 39.2578C28.978 38.4703 30.1686 37.957 31.4741 37.8539L31.4952 37.8516C31.5421 37.8469 31.596 37.8469 31.6522 37.8469C32.5265 37.8469 33.2765 38.3742 33.5999 39.1289L33.6046 39.143C33.8507 39.6938 33.9936 40.3383 33.9936 41.0156C33.9936 41.2219 33.9796 41.4258 33.9538 41.6273L33.9562 41.6039L33.7288 42.7594L34.0804 42.525C34.3241 42.3398 34.6311 42.2297 34.964 42.2297C35.1749 42.2297 35.3741 42.2742 35.5546 42.3539L35.5452 42.3492C35.9952 42.4664 36.321 42.8695 36.321 43.3477C36.321 43.4297 36.3116 43.5094 36.2929 43.5867L36.2952 43.5797L35.9436 44.8688C35.2405 47.6797 34.7726 49.7102 34.5397 50.9602C34.4226 51.3656 34.3569 51.832 34.3569 52.3148C34.3569 52.4156 34.3593 52.5141 34.3663 52.6125V52.5984C34.4054 53.0672 34.464 53.3016 34.5421 53.3016C34.6202 53.3016 34.7757 53.0672 35.0085 52.5984L35.3601 51.7781C35.4382 51.7781 35.4382 51.8172 35.3601 51.8953L36.6491 49.2C39.696 42.4844 41.3358 38.7344 41.5686 37.95L42.2718 35.7258C42.3499 35.5695 42.6624 35.4141 43.2093 35.2594C43.7647 35.1094 44.3999 35.0227 45.0561 35.0227C45.1101 35.0227 45.164 35.0227 45.2155 35.025H45.2085C46.3022 35.025 46.8491 35.2984 46.8491 35.8453L46.7319 36.4312C46.4694 37.1531 46.2093 38.0555 46.0077 38.9789L45.9819 39.1266C45.9351 39.4289 45.9069 39.7758 45.9069 40.132C45.9069 40.6055 45.9538 41.0672 46.0452 41.5148L46.0382 41.4703L46.1554 41.9367C46.3944 42.9141 46.7577 43.7719 47.2335 44.5547L47.2101 44.5148C48.146 42.9539 49.0444 41.3531 49.9054 39.7125C50.585 38.5805 51.2179 37.268 51.7265 35.8945L51.7804 35.7305C51.9561 34.8469 52.1577 34.1016 52.4038 33.375L52.3663 33.5062C52.4444 33.2719 52.778 33.0961 53.3671 32.9789C53.9249 32.8664 54.5647 32.8031 55.2186 32.8031H55.303H55.2983C56.3921 32.8031 56.9757 33.0766 57.0491 33.6234L56.8147 34.0898C56.5358 34.8773 56.2921 35.8242 56.128 36.7969L56.114 36.9023C56.0929 37.1297 56.0788 37.3922 56.0788 37.6594C56.0788 38.2195 56.1351 38.768 56.2405 39.2977L56.2311 39.2438V39.7102C56.5007 40.732 56.9015 41.6297 57.4265 42.443L57.403 42.4055L57.7546 43.2258C59.7116 42.2648 62.0132 41.7023 64.446 41.7023H64.5374H64.5327L64.5304 41.7094ZM14.2827 58.7086C15.9116 57.0258 16.9171 54.7289 16.9171 52.1977C16.9171 51.2203 16.7671 50.2781 16.4905 49.3922L16.5093 49.4578L14.6343 50.6297C12.7218 51.7195 11.0671 52.9359 9.56943 54.3188L9.58818 54.3023C8.45146 55.3477 7.6124 56.7 7.1999 58.2258L7.18584 58.2844C6.83428 59.7297 7.01006 60.6672 7.71318 61.0969C8.14209 61.2938 8.646 61.4086 9.17334 61.4086C9.7499 61.4086 10.296 61.2727 10.7765 61.0289L10.7554 61.0383C12.1476 60.532 13.3265 59.7281 14.264 58.6992L14.271 58.6922L14.2827 58.7086ZM29.9788 47.918C30.3694 46.9023 30.7991 45.6914 31.2679 44.2852C31.8929 42.4102 32.1077 41.3172 31.9124 41.0063C31.7171 40.6953 31.346 40.6562 30.7991 40.8891C30.1476 41.2055 29.6015 41.6391 29.1655 42.1711L29.1585 42.1805C28.671 42.7969 28.2069 43.4859 27.7944 44.2102L27.7522 44.2898C27.2788 45.0656 26.878 45.9586 26.5991 46.9055L26.578 46.9852C26.1257 48.2109 25.8632 49.6289 25.8632 51.1055C25.8632 51.3047 25.8679 51.5016 25.8772 51.6984V51.6703C25.9554 53.2313 26.2054 54.0711 26.6272 54.1898C27.0491 54.3086 27.5374 53.7422 28.0921 52.4906C28.6288 51.5227 29.1069 50.3977 29.4632 49.2188L29.496 49.0922C29.7288 48.5391 29.8882 48.1477 29.9741 47.918H29.9788ZM42.9772 54.1289C44.6015 53.4 45.7452 51.8648 45.9046 50.0484L45.9069 50.0297V49.9125L44.6179 51.5531L42.2765 54.1313C42.2413 54.1594 42.2179 54.2016 42.2179 54.2484C42.2179 54.2953 42.2413 54.3375 42.2741 54.3656C42.3491 54.4422 42.5835 54.3641 42.9772 54.1313V54.1289ZM53.053 51.9023C54.8249 51.3961 56.0999 49.7906 56.0999 47.8898C56.0999 47.8594 56.0999 47.8289 56.0999 47.7984V47.8031C56.0765 47.3344 55.9921 46.8937 55.8538 46.4766L55.8632 46.5117C54.9515 47.3227 54.2038 48.293 53.6624 49.3875L53.6366 49.4414C52.9319 50.8461 52.7351 51.6648 53.046 51.8977L53.053 51.9023Z" fill="url(#paint0_linear_25_508)"/>
</g>
<defs>
<linearGradient id="paint0_linear_25_508" x1="37.48" y1="9.375" x2="37.48" y2="65.6227" gradientUnits="userSpaceOnUse">
<stop stop-color="#84CFBB"/>
<stop offset="1" stop-color="#151515" stop-opacity="0.5"/>
</linearGradient>
<clipPath id="clip0_25_508">
<rect width="75" height="75" fill="white"/>
</clipPath>
</defs>
</svg>
