<?xml version="1.0" encoding="UTF-8"?>
<!DOCTYPE svg PUBLIC "-//W3C//DTD SVG 1.1//EN" "http://www.w3.org/Graphics/SVG/1.1/DTD/svg11.dtd">
<svg xmlns="http://www.w3.org/2000/svg" version="1.1" width="500px" height="500px" style="shape-rendering:geometricPrecision; text-rendering:geometricPrecision; image-rendering:optimizeQuality; fill-rule:evenodd; clip-rule:evenodd" xmlns:xlink="http://www.w3.org/1999/xlink">
<g><path style="opacity:1" fill="#8ed3c0" d="M 265.5,110.5 C 259.31,110.177 253.31,110.51 247.5,111.5C 247.167,111.5 246.833,111.5 246.5,111.5C 246.5,110.167 246.5,108.833 246.5,107.5C 252.833,108.833 259.167,108.833 265.5,107.5C 265.5,108.5 265.5,109.5 265.5,110.5 Z"/></g>
<g><path style="opacity:1" fill="#b0e0d2" d="M 265.5,110.5 C 266.673,120.492 262.34,124.992 252.5,124C 247.436,121.371 245.436,117.204 246.5,111.5C 246.833,111.5 247.167,111.5 247.5,111.5C 253.31,110.51 259.31,110.177 265.5,110.5 Z M 247.5,111.5 C 253.167,111.5 258.833,111.5 264.5,111.5C 262.824,120.68 257.657,123.347 249,119.5C 247.748,116.986 247.248,114.32 247.5,111.5 Z"/></g>
<g><path style="opacity:1" fill="#b4e1d5" d="M 162.5,127.5 C 140.5,127.5 118.5,127.5 96.5,127.5C 96.5,128.5 96.5,129.5 96.5,130.5C 95.5655,129.432 95.2322,128.099 95.5,126.5C 118.006,126.169 140.34,126.503 162.5,127.5 Z"/></g>
<g><path style="opacity:1" fill="#8dd2c0" d="M 162.5,127.5 C 181.695,128.437 198.695,134.937 213.5,147C 216.762,149.592 219.262,152.759 221,156.5C 221.979,190.227 221.646,223.894 220,257.5C 206.505,273.334 189.338,282.5 168.5,285C 144.169,285.5 119.836,285.667 95.5,285.5C 95.3505,284.448 95.5172,283.448 96,282.5C 101.427,279.908 104.094,275.575 104,269.5C 104.667,227.167 104.667,184.833 104,142.5C 103.744,136.968 101.244,132.968 96.5,130.5C 96.5,129.5 96.5,128.5 96.5,127.5C 118.5,127.5 140.5,127.5 162.5,127.5 Z M 201.5,263.5 C 198.833,265.5 196.5,267.833 194.5,270.5C 185.778,276.464 176.112,279.964 165.5,281C 154.5,281.667 143.5,281.667 132.5,281C 129.804,280.31 127.637,278.81 126,276.5C 124.514,227.893 124.014,179.226 124.5,130.5C 146.928,128.282 167.594,133.115 186.5,145C 206.933,162.932 216.933,185.599 216.5,213C 216.49,227.903 213.323,242.069 207,255.5C 205.404,258.369 203.57,261.036 201.5,263.5 Z"/></g>
<g><path style="opacity:1" fill="#c9eae1" d="M 265.5,137.5 C 263.708,137.366 262.042,137.699 260.5,138.5C 260.631,137.624 260.298,136.957 259.5,136.5C 257.941,135.926 256.441,135.26 255,134.5C 254.505,136.473 254.338,138.473 254.5,140.5C 254.167,140.5 253.833,140.5 253.5,140.5C 253.5,138.167 253.5,135.833 253.5,133.5C 251.194,133.007 248.861,132.674 246.5,132.5C 246.343,131.127 246.51,129.793 247,128.5C 248.008,130.259 249.508,131.426 251.5,132C 256.317,133.766 260.983,135.599 265.5,137.5 Z"/></g>
<g><path style="opacity:1" fill="#9fd9c9" d="M 265.5,137.5 C 265.631,138.376 265.298,139.043 264.5,139.5C 258.523,141.88 252.69,144.547 247,147.5C 246.333,145.833 246.333,144.167 247,142.5C 247.333,142.833 247.667,143.167 248,143.5C 249.876,142.391 251.709,141.391 253.5,140.5C 253.833,140.5 254.167,140.5 254.5,140.5C 256.297,139.27 258.297,138.604 260.5,138.5C 262.042,137.699 263.708,137.366 265.5,137.5 Z"/></g>
<g><path style="opacity:1" fill="#bae4d9" d="M 262.5,153.5 C 262.167,154.5 261.5,155.167 260.5,155.5C 256.689,154.355 252.689,154.188 248.5,155C 248,155.5 247.5,156 247,156.5C 246.333,155.167 246.333,153.833 247,152.5C 252.072,153.471 257.238,153.805 262.5,153.5 Z"/></g>
<g><path style="opacity:1" fill="#9bd8c7" d="M 255.5,161.5 C 254.833,161.833 254.167,162.167 253.5,162.5C 251.972,162.483 251.472,161.816 252,160.5C 254.614,158.444 257.447,156.777 260.5,155.5C 261.5,155.167 262.167,154.5 262.5,153.5C 263.458,153.047 264.292,152.381 265,151.5C 265.798,153.259 265.631,154.926 264.5,156.5C 261.634,158.432 258.634,160.099 255.5,161.5 Z"/></g>
<g><path style="opacity:1" fill="#d5eee7" d="M 255.5,161.5 C 258.171,164.161 261.171,166.494 264.5,168.5C 263.5,168.5 262.5,168.5 261.5,168.5C 258.833,166.5 256.167,164.5 253.5,162.5C 254.167,162.167 254.833,161.833 255.5,161.5 Z"/></g>
<g><path style="opacity:1" fill="#a1daca" d="M 261.5,168.5 C 262.5,168.5 263.5,168.5 264.5,168.5C 265.598,169.601 265.765,170.934 265,172.5C 259,171.167 253,171.167 247,172.5C 246.506,170.866 246.34,169.199 246.5,167.5C 251.453,168.329 256.453,168.663 261.5,168.5 Z"/></g>
<g><path style="opacity:1" fill="#a3dacb" d="M 246.5,179.5 C 252.833,180.833 259.167,180.833 265.5,179.5C 265.66,181.199 265.494,182.866 265,184.5C 259,183.167 253,183.167 247,184.5C 246.506,182.866 246.34,181.199 246.5,179.5 Z"/></g>
<g><path style="opacity:1" fill="#a3dbcb" d="M 249.5,208.5 C 249.5,207.833 249.833,207.5 250.5,207.5C 256.343,208.325 260.843,206.325 264,201.5C 264.401,194.917 261.235,192.417 254.5,194C 251.405,194.935 249.071,196.769 247.5,199.5C 246.833,199.5 246.5,199.167 246.5,198.5C 248.333,191.911 252.667,189.411 259.5,191C 265.234,194.18 267.067,199.013 265,205.5C 260.65,210.811 255.483,211.811 249.5,208.5 Z"/></g>
<g><path style="opacity:1" fill="#cbeae2" d="M 246.5,198.5 C 246.5,199.167 246.833,199.5 247.5,199.5C 247.016,202.788 248.016,205.455 250.5,207.5C 249.833,207.5 249.5,207.833 249.5,208.5C 246.433,205.645 245.433,202.311 246.5,198.5 Z"/></g>
<g><path style="opacity:1" fill="#b0e0d3" d="M 371.5,210.5 C 379.984,209.507 388.651,209.174 397.5,209.5C 397.768,211.099 397.434,212.432 396.5,213.5C 396.5,212.5 396.5,211.5 396.5,210.5C 388.167,210.5 379.833,210.5 371.5,210.5 Z"/></g>
<g><path style="opacity:1" fill="#c5e8de" d="M 284.5,209.5 C 285.586,209.62 286.253,210.287 286.5,211.5C 286.167,212.167 285.833,212.833 285.5,213.5C 284.571,212.311 284.238,210.978 284.5,209.5 Z"/></g>
<g><path style="opacity:1" fill="#8dd2bf" d="M 371.5,210.5 C 379.833,210.5 388.167,210.5 396.5,210.5C 396.5,211.5 396.5,212.5 396.5,213.5C 392.668,214.818 389.501,217.152 387,220.5C 384.412,224.674 382.079,229.007 380,233.5C 362.545,279.208 344.711,324.708 326.5,370C 324.231,370.758 322.064,370.591 320,369.5C 308.21,340.257 296.71,310.924 285.5,281.5C 285.17,265.325 285.504,249.325 286.5,233.5C 301.557,271.004 316.224,308.671 330.5,346.5C 331.301,348.793 331.968,348.46 332.5,345.5C 346.895,307.151 361.395,268.818 376,230.5C 378.104,225.381 377.938,220.381 375.5,215.5C 374.086,214.376 372.586,213.376 371,212.5C 370.308,211.563 370.475,210.897 371.5,210.5 Z"/></g>
<g><path style="opacity:1" fill="#bce4d9" d="M 264.5,220.5 C 264.196,218.204 263.196,217.871 261.5,219.5C 259.696,218.838 257.696,218.505 255.5,218.5C 252.42,218.32 249.587,218.986 247,220.5C 246.333,219.167 246.333,217.833 247,216.5C 253,217.833 259,217.833 265,216.5C 265.765,218.066 265.598,219.399 264.5,220.5 Z"/></g>
<g><path style="opacity:1" fill="#9ed9c9" d="M 264.5,220.5 C 260.5,223.5 256.5,226.5 252.5,229.5C 251.5,229.833 250.833,230.5 250.5,231.5C 248.801,231.66 247.134,231.494 245.5,231C 250.712,226.948 256.045,223.115 261.5,219.5C 263.196,217.871 264.196,218.204 264.5,220.5 Z"/></g>
<g><path style="opacity:1" fill="#bbe4d9" d="M 250.5,231.5 C 250.833,230.5 251.5,229.833 252.5,229.5C 255.976,230.643 259.642,230.81 263.5,230C 264,229.5 264.5,229 265,228.5C 265.781,229.944 265.614,231.277 264.5,232.5C 259.9,231.557 255.233,231.223 250.5,231.5 Z"/></g>
<g><path style="opacity:1" fill="#aedfd1" d="M 286.5,233.5 C 285.504,249.325 285.17,265.325 285.5,281.5C 284.338,264.338 284.171,247.005 285,229.5C 285.791,230.745 286.291,232.078 286.5,233.5 Z"/></g>
<g><path style="opacity:1" fill="#a3dacb" d="M 251.5,256.5 C 250.167,256.833 248.833,257.167 247.5,257.5C 245.621,257.607 245.288,257.107 246.5,256C 252.803,253.349 258.97,250.516 265,247.5C 265.494,249.134 265.66,250.801 265.5,252.5C 260.793,253.624 256.126,254.957 251.5,256.5 Z"/></g>
<g><path style="opacity:1" fill="#ccebe2" d="M 251.5,256.5 C 251.369,257.376 251.702,258.043 252.5,258.5C 255.539,259.569 258.539,260.735 261.5,262C 262.784,262.684 263.951,262.517 265,261.5C 265.667,262.833 265.667,264.167 265,265.5C 259.243,262.532 253.41,259.865 247.5,257.5C 248.833,257.167 250.167,256.833 251.5,256.5 Z"/></g>
<g><path style="opacity:1" fill="#b2e1d4" d="M 201.5,263.5 C 200.167,266.833 197.833,269.167 194.5,270.5C 196.5,267.833 198.833,265.5 201.5,263.5 Z"/></g>
<g><path style="opacity:1" fill="#a3dbcb" d="M 262.5,272.5 C 262.5,273.167 262.167,273.5 261.5,273.5C 255.347,272.248 250.68,274.248 247.5,279.5C 246.833,279.5 246.5,279.167 246.5,278.5C 246.544,274.91 248.211,272.41 251.5,271C 255.475,270.013 259.141,270.513 262.5,272.5 Z"/></g>
<g><path style="opacity:1" fill="#caeae1" d="M 262.5,272.5 C 263.79,273.058 264.623,274.058 265,275.5C 265.273,277.101 265.773,278.601 266.5,280C 266.272,280.399 265.938,280.565 265.5,280.5C 265.167,280.5 264.833,280.5 264.5,280.5C 264.85,277.547 263.85,275.213 261.5,273.5C 262.167,273.5 262.5,273.167 262.5,272.5 Z"/></g>
<g><path style="opacity:1" fill="#c7e9e0" d="M 246.5,278.5 C 246.5,279.167 246.833,279.5 247.5,279.5C 246.774,283.307 248.107,285.974 251.5,287.5C 250.833,287.5 250.5,287.833 250.5,288.5C 246.572,286.028 245.238,282.694 246.5,278.5 Z"/></g>
<g><path style="opacity:1" fill="#a2dacb" d="M 264.5,280.5 C 264.833,280.5 265.167,280.5 265.5,280.5C 265.261,286.573 262.094,289.906 256,290.5C 253.889,290.299 252.055,289.633 250.5,288.5C 250.5,287.833 250.833,287.5 251.5,287.5C 257.483,287.969 261.817,285.635 264.5,280.5 Z"/></g>
<g><path style="opacity:1" fill="#a5dccd" d="M 263.5,298.5 C 262.209,298.263 261.209,298.596 260.5,299.5C 258.137,302.382 256.137,305.549 254.5,309C 249.118,310.623 246.118,308.623 245.5,303C 245.16,297.665 247.493,295.665 252.5,297C 247.084,299.717 246.251,303.217 250,307.5C 251.261,307.241 252.261,306.574 253,305.5C 254.247,302.671 255.747,300.005 257.5,297.5C 259.935,295.948 261.935,296.281 263.5,298.5 Z"/></g>
<g><path style="opacity:1" fill="#bde5da" d="M 260.5,299.5 C 261.209,298.596 262.209,298.263 263.5,298.5C 264.117,298.611 264.617,298.944 265,299.5C 265.784,302.76 265.617,305.927 264.5,309C 263.167,309.667 261.833,309.667 260.5,309C 264.26,306.83 265.26,303.83 263.5,300C 262.552,299.517 261.552,299.351 260.5,299.5 Z"/></g>
<g><path style="opacity:1" fill="#87d0bc" d="M 246.5,317.5 C 252.509,317.334 258.509,317.501 264.5,318C 258.652,318.173 252.985,318.673 247.5,319.5C 246.58,320.067 246.246,319.401 246.5,317.5 Z"/></g>
<g><path style="opacity:1" fill="#a9ddcf" d="M 257.5,319.5 C 256.833,319.5 256.167,319.5 255.5,319.5C 252.833,319.5 250.167,319.5 247.5,319.5C 252.985,318.673 258.652,318.173 264.5,318C 258.509,317.501 252.509,317.334 246.5,317.5C 246.369,316.761 246.536,316.094 247,315.5C 253,316.833 259,316.833 265,315.5C 265.667,317.167 265.667,318.833 265,320.5C 262.619,319.565 260.119,319.232 257.5,319.5 Z"/></g>
<g><path style="opacity:1" fill="#dff2ed" d="M 255.5,319.5 C 256.167,319.5 256.833,319.5 257.5,319.5C 257.5,322.833 257.5,326.167 257.5,329.5C 256.833,329.5 256.167,329.5 255.5,329.5C 255.5,326.167 255.5,322.833 255.5,319.5 Z"/></g>
<g><path style="opacity:1" fill="#a3dacb" d="M 255.5,329.5 C 256.167,329.5 256.833,329.5 257.5,329.5C 260.206,329.425 262.873,329.092 265.5,328.5C 265.66,330.199 265.494,331.866 265,333.5C 259,332.167 253,332.167 247,333.5C 246.506,331.866 246.34,330.199 246.5,328.5C 249.455,329.159 252.455,329.492 255.5,329.5 Z"/></g>
<g><path style="opacity:1" fill="#ccebe2" d="M 259.5,344.5 C 258.07,344.579 256.736,344.246 255.5,343.5C 255.167,344.333 254.833,345.167 254.5,346C 254.684,347.376 255.351,348.209 256.5,348.5C 255.791,349.404 254.791,349.737 253.5,349.5C 254.365,344.954 252.699,341.954 248.5,340.5C 247.914,340.709 247.414,341.043 247,341.5C 246.333,340.167 246.333,338.833 247,337.5C 251.082,340.125 255.248,342.458 259.5,344.5 Z"/></g>
<g><path style="opacity:1" fill="#ceece4" d="M 332.5,345.5 C 331.968,348.46 331.301,348.793 330.5,346.5C 331.167,346.167 331.833,345.833 332.5,345.5 Z"/></g>
<g><path style="opacity:1" fill="#a2dacb" d="M 259.5,344.5 C 261.5,344.833 263.5,345.167 265.5,345.5C 265.5,346.5 265.5,347.5 265.5,348.5C 258.912,350.211 252.746,352.878 247,356.5C 246.506,354.866 246.34,353.199 246.5,351.5C 249.079,351.606 251.412,350.939 253.5,349.5C 254.791,349.737 255.791,349.404 256.5,348.5C 258.14,347.68 259.807,346.847 261.5,346C 260.584,345.722 259.918,345.222 259.5,344.5 Z"/></g>
<g><path style="opacity:1" fill="#a2daca" d="M 247.5,365.5 C 247.167,365.5 246.833,365.5 246.5,365.5C 246.5,364.167 246.5,362.833 246.5,361.5C 252.833,362.833 259.167,362.833 265.5,361.5C 265.66,363.199 265.494,364.866 265,366.5C 259.259,365.525 253.425,365.192 247.5,365.5 Z"/></g>
<g><path style="opacity:1" fill="#b6e2d6" d="M 246.5,365.5 C 246.833,365.5 247.167,365.5 247.5,365.5C 247.104,368.482 247.771,371.149 249.5,373.5C 248.675,374.386 247.675,374.719 246.5,374.5C 246.5,371.5 246.5,368.5 246.5,365.5 Z"/></g>
<g><path style="opacity:1" fill="#a2daca" d="M 247.5,384.5 C 247.167,384.5 246.833,384.5 246.5,384.5C 246.5,383.167 246.5,381.833 246.5,380.5C 252.833,381.833 259.167,381.833 265.5,380.5C 265.66,382.199 265.494,383.866 265,385.5C 259.259,384.525 253.425,384.192 247.5,384.5 Z"/></g>
<g><path style="opacity:1" fill="#b6e2d6" d="M 246.5,384.5 C 246.833,384.5 247.167,384.5 247.5,384.5C 247.104,387.482 247.771,390.149 249.5,392.5C 248.675,393.386 247.675,393.719 246.5,393.5C 246.5,390.5 246.5,387.5 246.5,384.5 Z"/></g>
</svg>
