<svg width="75" height="75" viewBox="0 0 75 75" fill="none" xmlns="http://www.w3.org/2000/svg">
<g clip-path="url(#clip0_25_541)">
<path d="M63.8598 42.118C68.622 42.118 72.4833 38.2592 72.4833 33.497C72.4833 28.7348 68.6219 24.8733 63.8598 24.8733C59.0988 24.8733 55.2373 28.7348 55.2373 33.497C55.2375 38.2592 59.0988 42.118 63.8598 42.118Z" fill="#84CFBB"/>
<path d="M74.9017 50.4274C74.5174 48.1185 72.6089 44.8871 71.1643 43.4435C70.974 43.2522 70.1235 43.2079 69.8938 43.3503C68.1375 44.4305 66.0744 45.0662 63.8601 45.0662C61.6483 45.0662 59.5851 44.4305 57.8286 43.3503C57.5979 43.2079 56.7486 43.2522 56.5583 43.4435C56.1544 43.8473 55.7138 44.3849 55.2842 45.0083C56.4465 47.1968 57.3684 49.5215 57.701 51.5234C58.0335 53.5302 57.9256 55.4301 57.3878 57.1622C59.2977 57.8531 61.588 58.1564 63.86 58.1564C69.786 58.1564 75.8504 56.1016 74.9017 50.4274Z" fill="#84CFBB"/>
<path d="M37.2785 38.4802C44.9963 38.4802 51.2536 32.2229 51.2536 24.5053C51.2536 16.7899 44.9963 10.5327 37.2785 10.5327C29.562 10.5327 23.3071 16.7899 23.3071 24.5053C23.3071 32.2229 29.5619 38.4802 37.2785 38.4802Z" fill="#84CFBB"/>
<path d="M49.1118 40.6206C48.8085 40.3187 47.4314 40.2415 47.057 40.4733C44.2082 42.2261 40.865 43.2522 37.2785 43.2522C33.6946 43.2522 30.3497 42.2261 27.5024 40.4733C27.1281 40.2414 25.751 40.3187 25.4478 40.6206C23.101 42.965 20.0079 48.2059 19.3857 51.9421C17.8514 61.1451 27.6817 64.4677 37.2785 64.4677C46.8779 64.4677 56.708 61.1451 55.1737 51.9421C54.5515 48.2059 51.4584 42.965 49.1118 40.6206Z" fill="#84CFBB"/>
<path d="M11.1403 42.118C15.9013 42.118 19.7626 38.2592 19.7626 33.497C19.7626 28.7348 15.9013 24.8733 11.1403 24.8733C6.37793 24.8733 2.5166 28.7348 2.5166 33.497C2.5166 38.2592 6.37793 42.118 11.1403 42.118Z" fill="#84CFBB"/>
<path d="M16.8595 51.5234C17.2132 49.4209 18.2109 46.9453 19.4617 44.6562C19.1131 44.18 18.7646 43.7651 18.4429 43.4435C18.2526 43.2522 17.4033 43.2079 17.1726 43.3503C15.4161 44.4305 13.3529 45.0662 11.1401 45.0662C8.92697 45.0662 6.86242 44.4305 5.10739 43.3503C4.87771 43.2079 4.02605 43.2522 3.83576 43.4435C2.38747 44.8869 0.483908 48.1185 0.0983608 50.4274C-0.8491 56.1016 5.21418 58.1562 11.1401 58.1562C13.2549 58.1562 15.3905 57.8959 17.2132 57.3007C16.6388 55.5334 16.5172 53.5891 16.8595 51.5234Z" fill="#84CFBB"/>
</g>
<defs>
<clipPath id="clip0_25_541">
<rect width="75" height="75" fill="white"/>
</clipPath>
</defs>
</svg>
