<svg width="75" height="75" viewBox="0 0 75 75" fill="none" xmlns="http://www.w3.org/2000/svg">
<g clip-path="url(#clip0_25_521)">
<path d="M37.5 0.0732422C16.8628 0.0732422 0.0732422 16.8617 0.0732422 37.4988C0.0732422 58.1358 16.8628 74.9268 37.5 74.9268C58.1366 74.9268 74.9268 58.1358 74.9268 37.4988C74.9268 16.8617 58.1366 0.0732422 37.5 0.0732422ZM3.85063 37.4988C3.85063 32.62 4.89727 27.9886 6.76421 23.8043L22.8163 67.7826C11.5894 62.3294 3.85063 50.8175 3.85063 37.4988ZM37.5 71.1507C34.1972 71.1507 31.0094 70.6663 27.9935 69.7794L38.0909 40.4424L48.4333 68.7792C48.5016 68.9455 48.5849 69.0984 48.6744 69.2429C45.1767 70.4739 41.4182 71.1507 37.5 71.1507ZM42.1375 21.7216C44.163 21.6155 45.9886 21.4024 45.9886 21.4024C47.8015 21.1879 47.5876 18.5228 45.7736 18.6294C45.7736 18.6294 40.3233 19.057 36.8043 19.057C33.4985 19.057 27.9429 18.6294 27.9429 18.6294C26.1283 18.5228 25.9157 21.2952 27.7296 21.4024C27.7296 21.4024 29.4457 21.6155 31.2592 21.7216L36.501 36.0863L29.1362 58.1713L16.8829 21.7216C18.9103 21.6155 20.7334 21.4024 20.7334 21.4024C22.5457 21.1879 22.3318 18.5228 20.5184 18.6294C20.5184 18.6294 15.0694 19.057 11.5503 19.057C10.9191 19.057 10.1754 19.0412 9.38467 19.0156C15.4015 9.8814 25.7439 3.84873 37.5 3.84873C46.2598 3.84873 54.236 7.19853 60.2228 12.6839C60.0779 12.6754 59.936 12.6571 59.7866 12.6571C56.4814 12.6571 54.1361 15.536 54.1361 18.6294C54.1361 21.4024 55.7357 23.7488 57.4414 26.5211C58.7212 28.7622 60.2155 31.6412 60.2155 35.8017C60.2155 38.6811 59.1081 42.0236 57.6551 46.6794L54.2981 57.8934L42.1375 21.7216ZM54.4169 66.5837L64.6947 36.8678C66.6142 32.0675 67.2538 28.2286 67.2538 24.8162C67.2538 23.5772 67.172 22.4271 67.0271 21.3555C69.6539 26.1478 71.1488 31.6478 71.1488 37.4988C71.1488 49.9128 64.4212 60.751 54.4169 66.5837Z" fill="url(#paint0_linear_25_521)"/>
</g>
<defs>
<linearGradient id="paint0_linear_25_521" x1="37.5" y1="0.0732422" x2="37.5" y2="74.9268" gradientUnits="userSpaceOnUse">
<stop stop-color="#84CFBB"/>
<stop offset="1" stop-color="#151515" stop-opacity="0.5"/>
</linearGradient>
<clipPath id="clip0_25_521">
<rect width="75" height="75" fill="white"/>
</clipPath>
</defs>
</svg>
